<?xml version="1.0" encoding="utf-8" standalone="no"?>
<!DOCTYPE svg PUBLIC "-//W3C//DTD SVG 1.1//EN"
  "http://www.w3.org/Graphics/SVG/1.1/DTD/svg11.dtd">
<svg xmlns:xlink="http://www.w3.org/1999/xlink" width="612pt" height="302.4pt" viewBox="0 0 612 302.4" xmlns="http://www.w3.org/2000/svg" version="1.1">
 <metadata>
  <rdf:RDF xmlns:dc="http://purl.org/dc/elements/1.1/" xmlns:cc="http://creativecommons.org/ns#" xmlns:rdf="http://www.w3.org/1999/02/22-rdf-syntax-ns#">
   <cc:Work>
    <dc:type rdf:resource="http://purl.org/dc/dcmitype/StillImage"/>
    <dc:date>2026-10-03T15:10:34.394295</dc:date>
    <dc:format>image/svg+xml</dc:format>
    <dc:creator>
     <cc:Agent>
      <dc:title>Matplotlib v3.11.2, https://matplotlib.org/</dc:title>
     </cc:Agent>
    </dc:creator>
   </cc:Work>
  </rdf:RDF>
 </metadata>
 <defs>
  <style type="text/css">*{stroke-linejoin: round; stroke-linecap: butt}</style>
 </defs>
 <g id="figure_1">
  <g id="patch_1">
   <path d="M 0 302.4 
L 612 302.4 
L 612 0 
L 0 0 
z
" style="fill: #ffffff"/>
  </g>
  <g id="axes_1">
   <g id="patch_2">
    <path d="M 32.92 261.48 
L 601.2 261.48 
L 601.2 25.44 
L 32.92 25.44 
z
" style="fill: #ffffff"/>
   </g>
   <g id="matplotlib.axis_1">
    <g id="xtick_1">
     <g id="line2d_1">
      <defs>
       <path id="m4e08cc6af7" d="M 0 0 
L 0 3.5 
" style="stroke: #52514e; stroke-width: 0.8"/>
      </defs>
      <g>
       <use xlink:href="#m4e08cc6af7" x="89.501991" y="261.48" style="fill: #52514e; stroke: #52514e; stroke-width: 0.8"/>
      </g>
     </g>
     <g id="text_1">
      <!-- 2026-09-27 -->
      <g style="fill: #52514e" transform="translate(66.255741 274.558125) scale(0.08 -0.08)">
       <defs>
        <path id="DejaVuSans-15" d="M 1228 531 
L 3431 531 
L 3431 0 
L 469 0 
L 469 531 
Q 828 903 1448 1529 
Q 2069 2156 2228 2338 
Q 2531 2678 2651 2914 
Q 2772 3150 2772 3378 
Q 2772 3750 2511 3984 
Q 2250 4219 1831 4219 
Q 1534 4219 1204 4116 
Q 875 4013 500 3803 
L 500 4441 
Q 881 4594 1212 4672 
Q 1544 4750 1819 4750 
Q 2544 4750 2975 4387 
Q 3406 4025 3406 3419 
Q 3406 3131 3298 2873 
Q 3191 2616 2906 2266 
Q 2828 2175 2409 1742 
Q 1991 1309 1228 531 
z
" transform="scale(0.015625)"/>
        <path id="DejaVuSans-13" d="M 2034 4250 
Q 1547 4250 1301 3770 
Q 1056 3291 1056 2328 
Q 1056 1369 1301 889 
Q 1547 409 2034 409 
Q 2525 409 2770 889 
Q 3016 1369 3016 2328 
Q 3016 3291 2770 3770 
Q 2525 4250 2034 4250 
z
M 2034 4750 
Q 2819 4750 3233 4129 
Q 3647 3509 3647 2328 
Q 3647 1150 3233 529 
Q 2819 -91 2034 -91 
Q 1250 -91 836 529 
Q 422 1150 422 2328 
Q 422 3509 836 4129 
Q 1250 4750 2034 4750 
z
" transform="scale(0.015625)"/>
        <path id="DejaVuSans-19" d="M 2113 2584 
Q 1688 2584 1439 2293 
Q 1191 2003 1191 1497 
Q 1191 994 1439 701 
Q 1688 409 2113 409 
Q 2538 409 2786 701 
Q 3034 994 3034 1497 
Q 3034 2003 2786 2293 
Q 2538 2584 2113 2584 
z
M 3366 4563 
L 3366 3988 
Q 3128 4100 2886 4159 
Q 2644 4219 2406 4219 
Q 1781 4219 1451 3797 
Q 1122 3375 1075 2522 
Q 1259 2794 1537 2939 
Q 1816 3084 2150 3084 
Q 2853 3084 3261 2657 
Q 3669 2231 3669 1497 
Q 3669 778 3244 343 
Q 2819 -91 2113 -91 
Q 1303 -91 875 529 
Q 447 1150 447 2328 
Q 447 3434 972 4092 
Q 1497 4750 2381 4750 
Q 2619 4750 2861 4703 
Q 3103 4656 3366 4563 
z
" transform="scale(0.015625)"/>
        <path id="DejaVuSans-10" d="M 313 2009 
L 1997 2009 
L 1997 1497 
L 313 1497 
L 313 2009 
z
" transform="scale(0.015625)"/>
        <path id="DejaVuSans-1c" d="M 703 97 
L 703 672 
Q 941 559 1184 500 
Q 1428 441 1663 441 
Q 2288 441 2617 861 
Q 2947 1281 2994 2138 
Q 2813 1869 2534 1725 
Q 2256 1581 1919 1581 
Q 1219 1581 811 2004 
Q 403 2428 403 3163 
Q 403 3881 828 4315 
Q 1253 4750 1959 4750 
Q 2769 4750 3195 4129 
Q 3622 3509 3622 2328 
Q 3622 1225 3098 567 
Q 2575 -91 1691 -91 
Q 1453 -91 1209 -44 
Q 966 3 703 97 
z
M 1959 2075 
Q 2384 2075 2632 2365 
Q 2881 2656 2881 3163 
Q 2881 3666 2632 3958 
Q 2384 4250 1959 4250 
Q 1534 4250 1286 3958 
Q 1038 3666 1038 3163 
Q 1038 2656 1286 2365 
Q 1534 2075 1959 2075 
z
" transform="scale(0.015625)"/>
        <path id="DejaVuSans-1a" d="M 525 4666 
L 3525 4666 
L 3525 4397 
L 1831 0 
L 1172 0 
L 2766 4134 
L 525 4134 
L 525 4666 
z
" transform="scale(0.015625)"/>
       </defs>
       <use xlink:href="#DejaVuSans-15"/>
       <use xlink:href="#DejaVuSans-13" transform="translate(63.625 0)"/>
       <use xlink:href="#DejaVuSans-15" transform="translate(127.25 0)"/>
       <use xlink:href="#DejaVuSans-19" transform="translate(190.875 0)"/>
       <use xlink:href="#DejaVuSans-10" transform="translate(254.5 0)"/>
       <use xlink:href="#DejaVuSans-13" transform="translate(290.578125 0)"/>
       <use xlink:href="#DejaVuSans-1c" transform="translate(354.203125 0)"/>
       <use xlink:href="#DejaVuSans-10" transform="translate(417.828125 0)"/>
       <use xlink:href="#DejaVuSans-15" transform="translate(453.90625 0)"/>
       <use xlink:href="#DejaVuSans-1a" transform="translate(517.53125 0)"/>
      </g>
     </g>
    </g>
    <g id="xtick_2">
     <g id="line2d_2">
      <g>
       <use xlink:href="#m4e08cc6af7" x="163.304589" y="261.48" style="fill: #52514e; stroke: #52514e; stroke-width: 0.8"/>
      </g>
     </g>
     <g id="text_2">
      <!-- 2026-09-28 -->
      <g style="fill: #52514e" transform="translate(140.058339 274.558125) scale(0.08 -0.08)">
       <defs>
        <path id="DejaVuSans-1b" d="M 2034 2216 
Q 1584 2216 1326 1975 
Q 1069 1734 1069 1313 
Q 1069 891 1326 650 
Q 1584 409 2034 409 
Q 2484 409 2743 651 
Q 3003 894 3003 1313 
Q 3003 1734 2745 1975 
Q 2488 2216 2034 2216 
z
M 1403 2484 
Q 997 2584 770 2862 
Q 544 3141 544 3541 
Q 544 4100 942 4425 
Q 1341 4750 2034 4750 
Q 2731 4750 3128 4425 
Q 3525 4100 3525 3541 
Q 3525 3141 3298 2862 
Q 3072 2584 2669 2484 
Q 3125 2378 3379 2068 
Q 3634 1759 3634 1313 
Q 3634 634 3220 271 
Q 2806 -91 2034 -91 
Q 1263 -91 848 271 
Q 434 634 434 1313 
Q 434 1759 690 2068 
Q 947 2378 1403 2484 
z
M 1172 3481 
Q 1172 3119 1398 2916 
Q 1625 2713 2034 2713 
Q 2441 2713 2670 2916 
Q 2900 3119 2900 3481 
Q 2900 3844 2670 4047 
Q 2441 4250 2034 4250 
Q 1625 4250 1398 4047 
Q 1172 3844 1172 3481 
z
" transform="scale(0.015625)"/>
       </defs>
       <use xlink:href="#DejaVuSans-15"/>
       <use xlink:href="#DejaVuSans-13" transform="translate(63.625 0)"/>
       <use xlink:href="#DejaVuSans-15" transform="translate(127.25 0)"/>
       <use xlink:href="#DejaVuSans-19" transform="translate(190.875 0)"/>
       <use xlink:href="#DejaVuSans-10" transform="translate(254.5 0)"/>
       <use xlink:href="#DejaVuSans-13" transform="translate(290.578125 0)"/>
       <use xlink:href="#DejaVuSans-1c" transform="translate(354.203125 0)"/>
       <use xlink:href="#DejaVuSans-10" transform="translate(417.828125 0)"/>
       <use xlink:href="#DejaVuSans-15" transform="translate(453.90625 0)"/>
       <use xlink:href="#DejaVuSans-1b" transform="translate(517.53125 0)"/>
      </g>
     </g>
    </g>
    <g id="xtick_3">
     <g id="line2d_3">
      <g>
       <use xlink:href="#m4e08cc6af7" x="237.107186" y="261.48" style="fill: #52514e; stroke: #52514e; stroke-width: 0.8"/>
      </g>
     </g>
     <g id="text_3">
      <!-- 2026-09-29 -->
      <g style="fill: #52514e" transform="translate(213.860936 274.558125) scale(0.08 -0.08)">
       <use xlink:href="#DejaVuSans-15"/>
       <use xlink:href="#DejaVuSans-13" transform="translate(63.625 0)"/>
       <use xlink:href="#DejaVuSans-15" transform="translate(127.25 0)"/>
       <use xlink:href="#DejaVuSans-19" transform="translate(190.875 0)"/>
       <use xlink:href="#DejaVuSans-10" transform="translate(254.5 0)"/>
       <use xlink:href="#DejaVuSans-13" transform="translate(290.578125 0)"/>
       <use xlink:href="#DejaVuSans-1c" transform="translate(354.203125 0)"/>
       <use xlink:href="#DejaVuSans-10" transform="translate(417.828125 0)"/>
       <use xlink:href="#DejaVuSans-15" transform="translate(453.90625 0)"/>
       <use xlink:href="#DejaVuSans-1c" transform="translate(517.53125 0)"/>
      </g>
     </g>
    </g>
    <g id="xtick_4">
     <g id="line2d_4">
      <g>
       <use xlink:href="#m4e08cc6af7" x="310.909784" y="261.48" style="fill: #52514e; stroke: #52514e; stroke-width: 0.8"/>
      </g>
     </g>
     <g id="text_4">
      <!-- 2026-09-30 -->
      <g style="fill: #52514e" transform="translate(287.663534 274.558125) scale(0.08 -0.08)">
       <defs>
        <path id="DejaVuSans-16" d="M 2597 2516 
Q 3050 2419 3304 2112 
Q 3559 1806 3559 1356 
Q 3559 666 3084 287 
Q 2609 -91 1734 -91 
Q 1441 -91 1130 -33 
Q 819 25 488 141 
L 488 750 
Q 750 597 1062 519 
Q 1375 441 1716 441 
Q 2309 441 2620 675 
Q 2931 909 2931 1356 
Q 2931 1769 2642 2001 
Q 2353 2234 1838 2234 
L 1294 2234 
L 1294 2753 
L 1863 2753 
Q 2328 2753 2575 2939 
Q 2822 3125 2822 3475 
Q 2822 3834 2567 4026 
Q 2313 4219 1838 4219 
Q 1578 4219 1281 4162 
Q 984 4106 628 3988 
L 628 4550 
Q 988 4650 1302 4700 
Q 1616 4750 1894 4750 
Q 2613 4750 3031 4423 
Q 3450 4097 3450 3541 
Q 3450 3153 3228 2886 
Q 3006 2619 2597 2516 
z
" transform="scale(0.015625)"/>
       </defs>
       <use xlink:href="#DejaVuSans-15"/>
       <use xlink:href="#DejaVuSans-13" transform="translate(63.625 0)"/>
       <use xlink:href="#DejaVuSans-15" transform="translate(127.25 0)"/>
       <use xlink:href="#DejaVuSans-19" transform="translate(190.875 0)"/>
       <use xlink:href="#DejaVuSans-10" transform="translate(254.5 0)"/>
       <use xlink:href="#DejaVuSans-13" transform="translate(290.578125 0)"/>
       <use xlink:href="#DejaVuSans-1c" transform="translate(354.203125 0)"/>
       <use xlink:href="#DejaVuSans-10" transform="translate(417.828125 0)"/>
       <use xlink:href="#DejaVuSans-16" transform="translate(453.90625 0)"/>
       <use xlink:href="#DejaVuSans-13" transform="translate(517.53125 0)"/>
      </g>
     </g>
    </g>
    <g id="xtick_5">
     <g id="line2d_5">
      <g>
       <use xlink:href="#m4e08cc6af7" x="384.712381" y="261.48" style="fill: #52514e; stroke: #52514e; stroke-width: 0.8"/>
      </g>
     </g>
     <g id="text_5">
      <!-- 2026-10-01 -->
      <g style="fill: #52514e" transform="translate(361.466131 274.558125) scale(0.08 -0.08)">
       <defs>
        <path id="DejaVuSans-14" d="M 794 531 
L 1825 531 
L 1825 4091 
L 703 3866 
L 703 4441 
L 1819 4666 
L 2450 4666 
L 2450 531 
L 3481 531 
L 3481 0 
L 794 0 
L 794 531 
z
" transform="scale(0.015625)"/>
       </defs>
       <use xlink:href="#DejaVuSans-15"/>
       <use xlink:href="#DejaVuSans-13" transform="translate(63.625 0)"/>
       <use xlink:href="#DejaVuSans-15" transform="translate(127.25 0)"/>
       <use xlink:href="#DejaVuSans-19" transform="translate(190.875 0)"/>
       <use xlink:href="#DejaVuSans-10" transform="translate(254.5 0)"/>
       <use xlink:href="#DejaVuSans-14" transform="translate(290.578125 0)"/>
       <use xlink:href="#DejaVuSans-13" transform="translate(354.203125 0)"/>
       <use xlink:href="#DejaVuSans-10" transform="translate(417.828125 0)"/>
       <use xlink:href="#DejaVuSans-13" transform="translate(453.90625 0)"/>
       <use xlink:href="#DejaVuSans-14" transform="translate(517.53125 0)"/>
      </g>
     </g>
    </g>
    <g id="xtick_6">
     <g id="line2d_6">
      <g>
       <use xlink:href="#m4e08cc6af7" x="458.514978" y="261.48" style="fill: #52514e; stroke: #52514e; stroke-width: 0.8"/>
      </g>
     </g>
     <g id="text_6">
      <!-- 2026-10-02 -->
      <g style="fill: #52514e" transform="translate(435.268728 274.558125) scale(0.08 -0.08)">
       <use xlink:href="#DejaVuSans-15"/>
       <use xlink:href="#DejaVuSans-13" transform="translate(63.625 0)"/>
       <use xlink:href="#DejaVuSans-15" transform="translate(127.25 0)"/>
       <use xlink:href="#DejaVuSans-19" transform="translate(190.875 0)"/>
       <use xlink:href="#DejaVuSans-10" transform="translate(254.5 0)"/>
       <use xlink:href="#DejaVuSans-14" transform="translate(290.578125 0)"/>
       <use xlink:href="#DejaVuSans-13" transform="translate(354.203125 0)"/>
       <use xlink:href="#DejaVuSans-10" transform="translate(417.828125 0)"/>
       <use xlink:href="#DejaVuSans-13" transform="translate(453.90625 0)"/>
       <use xlink:href="#DejaVuSans-15" transform="translate(517.53125 0)"/>
      </g>
     </g>
    </g>
    <g id="xtick_7">
     <g id="line2d_7">
      <g>
       <use xlink:href="#m4e08cc6af7" x="532.317576" y="261.48" style="fill: #52514e; stroke: #52514e; stroke-width: 0.8"/>
      </g>
     </g>
     <g id="text_7">
      <!-- 2026-10-03 -->
      <g style="fill: #52514e" transform="translate(509.071326 274.558125) scale(0.08 -0.08)">
       <use xlink:href="#DejaVuSans-15"/>
       <use xlink:href="#DejaVuSans-13" transform="translate(63.625 0)"/>
       <use xlink:href="#DejaVuSans-15" transform="translate(127.25 0)"/>
       <use xlink:href="#DejaVuSans-19" transform="translate(190.875 0)"/>
       <use xlink:href="#DejaVuSans-10" transform="translate(254.5 0)"/>
       <use xlink:href="#DejaVuSans-14" transform="translate(290.578125 0)"/>
       <use xlink:href="#DejaVuSans-13" transform="translate(354.203125 0)"/>
       <use xlink:href="#DejaVuSans-10" transform="translate(417.828125 0)"/>
       <use xlink:href="#DejaVuSans-13" transform="translate(453.90625 0)"/>
       <use xlink:href="#DejaVuSans-16" transform="translate(517.53125 0)"/>
      </g>
     </g>
    </g>
   </g>
   <g id="matplotlib.axis_2">
    <g id="ytick_1">
     <g id="line2d_8">
      <path d="M 32.92 250.750909 
L 601.2 250.750909 
" clip-path="url(#pd5db1329c7)" style="fill: none; stroke: #e8e7e2; stroke-width: 0.8; stroke-linecap: square"/>
     </g>
     <g id="line2d_9">
      <defs>
       <path id="m8eece92019" d="M 0 0 
L -3.5 0 
" style="stroke: #52514e; stroke-width: 0.8"/>
      </defs>
      <g>
       <use xlink:href="#m8eece92019" x="32.92" y="250.750909" style="fill: #52514e; stroke: #52514e; stroke-width: 0.8"/>
      </g>
     </g>
     <g id="text_8">
      <!-- 0 -->
      <g style="fill: #52514e" transform="translate(20.83 253.789972) scale(0.08 -0.08)">
       <use xlink:href="#DejaVuSans-13"/>
      </g>
     </g>
    </g>
    <g id="ytick_2">
     <g id="line2d_10">
      <path d="M 32.92 207.834545 
L 601.2 207.834545 
" clip-path="url(#pd5db1329c7)" style="fill: none; stroke: #e8e7e2; stroke-width: 0.8; stroke-linecap: square"/>
     </g>
     <g id="line2d_11">
      <g>
       <use xlink:href="#m8eece92019" x="32.92" y="207.834545" style="fill: #52514e; stroke: #52514e; stroke-width: 0.8"/>
      </g>
     </g>
     <g id="text_9">
      <!-- 20 -->
      <g style="fill: #52514e" transform="translate(15.74 210.873608) scale(0.08 -0.08)">
       <use xlink:href="#DejaVuSans-15"/>
       <use xlink:href="#DejaVuSans-13" transform="translate(63.625 0)"/>
      </g>
     </g>
    </g>
    <g id="ytick_3">
     <g id="line2d_12">
      <path d="M 32.92 164.918182 
L 601.2 164.918182 
" clip-path="url(#pd5db1329c7)" style="fill: none; stroke: #e8e7e2; stroke-width: 0.8; stroke-linecap: square"/>
     </g>
     <g id="line2d_13">
      <g>
       <use xlink:href="#m8eece92019" x="32.92" y="164.918182" style="fill: #52514e; stroke: #52514e; stroke-width: 0.8"/>
      </g>
     </g>
     <g id="text_10">
      <!-- 40 -->
      <g style="fill: #52514e" transform="translate(15.74 167.957244) scale(0.08 -0.08)">
       <defs>
        <path id="DejaVuSans-17" d="M 2419 4116 
L 825 1625 
L 2419 1625 
L 2419 4116 
z
M 2253 4666 
L 3047 4666 
L 3047 1625 
L 3713 1625 
L 3713 1100 
L 3047 1100 
L 3047 0 
L 2419 0 
L 2419 1100 
L 313 1100 
L 313 1709 
L 2253 4666 
z
" transform="scale(0.015625)"/>
       </defs>
       <use xlink:href="#DejaVuSans-17"/>
       <use xlink:href="#DejaVuSans-13" transform="translate(63.625 0)"/>
      </g>
     </g>
    </g>
    <g id="ytick_4">
     <g id="line2d_14">
      <path d="M 32.92 122.001818 
L 601.2 122.001818 
" clip-path="url(#pd5db1329c7)" style="fill: none; stroke: #e8e7e2; stroke-width: 0.8; stroke-linecap: square"/>
     </g>
     <g id="line2d_15">
      <g>
       <use xlink:href="#m8eece92019" x="32.92" y="122.001818" style="fill: #52514e; stroke: #52514e; stroke-width: 0.8"/>
      </g>
     </g>
     <g id="text_11">
      <!-- 60 -->
      <g style="fill: #52514e" transform="translate(15.74 125.040881) scale(0.08 -0.08)">
       <use xlink:href="#DejaVuSans-19"/>
       <use xlink:href="#DejaVuSans-13" transform="translate(63.625 0)"/>
      </g>
     </g>
    </g>
    <g id="ytick_5">
     <g id="line2d_16">
      <path d="M 32.92 79.085455 
L 601.2 79.085455 
" clip-path="url(#pd5db1329c7)" style="fill: none; stroke: #e8e7e2; stroke-width: 0.8; stroke-linecap: square"/>
     </g>
     <g id="line2d_17">
      <g>
       <use xlink:href="#m8eece92019" x="32.92" y="79.085455" style="fill: #52514e; stroke: #52514e; stroke-width: 0.8"/>
      </g>
     </g>
     <g id="text_12">
      <!-- 80 -->
      <g style="fill: #52514e" transform="translate(15.74 82.124517) scale(0.08 -0.08)">
       <use xlink:href="#DejaVuSans-1b"/>
       <use xlink:href="#DejaVuSans-13" transform="translate(63.625 0)"/>
      </g>
     </g>
    </g>
    <g id="ytick_6">
     <g id="line2d_18">
      <path d="M 32.92 36.169091 
L 601.2 36.169091 
" clip-path="url(#pd5db1329c7)" style="fill: none; stroke: #e8e7e2; stroke-width: 0.8; stroke-linecap: square"/>
     </g>
     <g id="line2d_19">
      <g>
       <use xlink:href="#m8eece92019" x="32.92" y="36.169091" style="fill: #52514e; stroke: #52514e; stroke-width: 0.8"/>
      </g>
     </g>
     <g id="text_13">
      <!-- 100 -->
      <g style="fill: #52514e" transform="translate(10.65 39.208153) scale(0.08 -0.08)">
       <use xlink:href="#DejaVuSans-14"/>
       <use xlink:href="#DejaVuSans-13" transform="translate(63.625 0)"/>
       <use xlink:href="#DejaVuSans-13" transform="translate(127.25 0)"/>
      </g>
     </g>
    </g>
   </g>
   <g id="line2d_20">
    <path d="M 58.750909 250.750909 
L 67.976234 250.750909 
L 71.051342 225.001091 
L 74.12645 250.750909 
L 138.703723 250.750909 
L 141.778831 225.001091 
L 144.853939 250.750909 
L 194.055671 250.750909 
L 197.130779 222.855273 
L 200.205887 220.709455 
L 203.280996 250.750909 
L 341.660866 250.750909 
L 344.735974 220.709455 
L 347.811082 250.750909 
L 350.88619 214.272 
L 353.961299 250.750909 
L 369.33684 250.750909 
L 372.411948 222.855273 
L 375.487056 250.750909 
L 495.416277 250.750909 
L 498.491385 207.834545 
L 504.641602 186.376364 
L 507.71671 149.897455 
L 510.791818 130.585091 
L 513.866926 132.730909 
L 516.942035 68.356364 
L 520.017143 87.668727 
L 523.092251 87.668727 
L 526.167359 106.981091 
L 529.242468 113.418545 
L 532.317576 115.564364 
L 535.392684 158.480727 
L 538.467792 149.897455 
L 541.5429 132.730909 
L 544.618009 192.813818 
L 547.693117 173.501455 
L 550.768225 190.668 
L 553.843333 152.043273 
L 556.918442 152.043273 
L 559.99355 167.064 
L 563.068658 186.376364 
L 566.143766 192.813818 
L 569.218874 182.084727 
L 572.293983 188.522182 
L 575.369091 167.064 
L 575.369091 167.064 
" clip-path="url(#pd5db1329c7)" style="fill: none; stroke: #2a78d6; stroke-width: 1.4; stroke-linecap: square"/>
   </g>
   <g id="line2d_21">
    <path d="M 58.750909 250.750909 
L 61.826017 250.750909 
L 64.901126 218.563636 
L 67.976234 250.750909 
L 71.051342 225.001091 
L 74.12645 222.855273 
L 80.276667 214.272 
L 83.351775 250.750909 
L 86.426883 250.750909 
L 89.501991 209.980364 
L 92.5771 250.750909 
L 120.253074 250.750909 
L 123.328182 205.688727 
L 126.40329 250.750909 
L 129.478398 216.417818 
L 132.553506 218.563636 
L 135.628615 203.542909 
L 138.703723 250.750909 
L 141.778831 250.750909 
L 144.853939 218.563636 
L 147.929048 205.688727 
L 151.004156 214.272 
L 154.079264 250.750909 
L 163.304589 250.750909 
L 166.379697 207.834545 
L 169.454805 209.980364 
L 172.529913 250.750909 
L 175.605022 250.750909 
L 178.68013 209.980364 
L 181.755238 250.750909 
L 187.905455 250.750909 
L 190.980563 220.709455 
L 194.055671 250.750909 
L 197.130779 220.709455 
L 200.205887 250.750909 
L 203.280996 205.688727 
L 206.356104 212.126182 
L 209.431212 227.146909 
L 212.50632 214.272 
L 215.581429 225.001091 
L 218.656537 250.750909 
L 221.731645 225.001091 
L 224.806753 207.834545 
L 227.881861 192.813818 
L 230.95697 250.750909 
L 240.182294 250.750909 
L 243.257403 205.688727 
L 246.332511 212.126182 
L 249.407619 250.750909 
L 252.482727 212.126182 
L 255.557835 250.750909 
L 267.858268 250.750909 
L 270.933377 218.563636 
L 274.008485 216.417818 
L 277.083593 216.417818 
L 280.158701 227.146909 
L 283.23381 214.272 
L 286.308918 222.855273 
L 289.384026 222.855273 
L 292.459134 218.563636 
L 295.534242 199.251273 
L 298.609351 216.417818 
L 301.684459 250.750909 
L 304.759567 201.397091 
L 307.834675 250.750909 
L 310.909784 207.834545 
L 313.984892 205.688727 
L 317.06 205.688727 
L 320.135108 250.750909 
L 323.210216 250.750909 
L 326.285325 214.272 
L 329.360433 250.750909 
L 335.510649 250.750909 
L 338.585758 218.563636 
L 341.660866 216.417818 
L 344.735974 250.750909 
L 347.811082 250.750909 
L 350.88619 227.146909 
L 353.961299 220.709455 
L 357.036407 227.146909 
L 360.111515 250.750909 
L 366.261732 250.750909 
L 369.33684 212.126182 
L 372.411948 205.688727 
L 375.487056 212.126182 
L 378.562165 205.688727 
L 381.637273 209.980364 
L 384.712381 194.959636 
L 387.787489 197.105455 
L 393.937706 197.105455 
L 397.012814 205.688727 
L 400.087922 250.750909 
L 403.16303 205.688727 
L 406.238139 212.126182 
L 409.313247 250.750909 
L 412.388355 250.750909 
L 415.463463 220.709455 
L 418.538571 225.001091 
L 421.61368 250.750909 
L 424.688788 229.292727 
L 427.763896 229.292727 
L 430.839004 218.563636 
L 433.914113 250.750909 
L 436.989221 250.750909 
L 440.064329 222.855273 
L 443.139437 222.855273 
L 446.214545 216.417818 
L 449.289654 250.750909 
L 495.416277 250.750909 
L 498.491385 199.251273 
L 501.566494 175.647273 
L 504.641602 169.209818 
L 507.71671 182.084727 
L 510.791818 141.314182 
L 513.866926 122.001818 
L 516.942035 137.022545 
L 520.017143 100.543636 
L 523.092251 74.793818 
L 526.167359 109.126909 
L 529.242468 134.876727 
L 532.317576 162.772364 
L 535.392684 149.897455 
L 538.467792 160.626545 
L 541.5429 134.876727 
L 544.618009 91.960364 
L 547.693117 145.605818 
L 550.768225 126.293455 
L 553.843333 124.147636 
L 556.918442 134.876727 
L 559.99355 132.730909 
L 563.068658 147.751636 
L 566.143766 109.126909 
L 569.218874 96.252 
L 572.293983 81.231273 
L 575.369091 36.169091 
L 575.369091 36.169091 
" clip-path="url(#pd5db1329c7)" style="fill: none; stroke: #eb6834; stroke-width: 1.4; stroke-linecap: square"/>
   </g>
   <g id="line2d_22">
    <path d="M 58.750909 250.750909 
L 151.004156 250.750909 
L 154.079264 203.542909 
L 157.154372 250.750909 
L 197.130779 250.750909 
L 200.205887 227.146909 
L 203.280996 250.750909 
L 206.356104 220.709455 
L 209.431212 229.292727 
L 212.50632 227.146909 
L 215.581429 250.750909 
L 218.656537 250.750909 
L 221.731645 222.855273 
L 224.806753 250.750909 
L 267.858268 250.750909 
L 270.933377 225.001091 
L 274.008485 250.750909 
L 366.261732 250.750909 
L 369.33684 222.855273 
L 372.411948 250.750909 
L 375.487056 250.750909 
L 378.562165 212.126182 
L 381.637273 250.750909 
L 440.064329 250.750909 
L 443.139437 227.146909 
L 446.214545 250.750909 
L 495.416277 250.750909 
L 498.491385 218.563636 
L 501.566494 209.980364 
L 504.641602 205.688727 
L 507.71671 218.563636 
L 510.791818 207.834545 
L 513.866926 212.126182 
L 516.942035 212.126182 
L 520.017143 205.688727 
L 523.092251 250.750909 
L 526.167359 199.251273 
L 529.242468 154.189091 
L 532.317576 212.126182 
L 535.392684 199.251273 
L 538.467792 177.793091 
L 541.5429 250.750909 
L 559.99355 250.750909 
L 563.068658 225.001091 
L 566.143766 250.750909 
L 569.218874 199.251273 
L 572.293983 216.417818 
L 575.369091 207.834545 
L 575.369091 207.834545 
" clip-path="url(#pd5db1329c7)" style="fill: none; stroke: #1baf7a; stroke-width: 1.4; stroke-linecap: square"/>
   </g>
   <g id="line2d_23">
    <path d="M 58.750909 250.750909 
L 61.826017 209.980364 
L 64.901126 209.980364 
L 67.976234 203.542909 
L 71.051342 205.688727 
L 74.12645 212.126182 
L 77.201558 199.251273 
L 80.276667 216.417818 
L 83.351775 197.105455 
L 86.426883 207.834545 
L 89.501991 203.542909 
L 95.652208 203.542909 
L 98.727316 250.750909 
L 120.253074 250.750909 
L 123.328182 205.688727 
L 126.40329 158.480727 
L 129.478398 194.959636 
L 132.553506 177.793091 
L 135.628615 173.501455 
L 138.703723 207.834545 
L 141.778831 190.668 
L 144.853939 188.522182 
L 147.929048 201.397091 
L 151.004156 156.334909 
L 154.079264 182.084727 
L 157.154372 203.542909 
L 160.229481 184.230545 
L 163.304589 173.501455 
L 166.379697 169.209818 
L 169.454805 186.376364 
L 172.529913 250.750909 
L 190.980563 250.750909 
L 194.055671 216.417818 
L 197.130779 212.126182 
L 200.205887 141.314182 
L 203.280996 190.668 
L 206.356104 209.980364 
L 209.431212 199.251273 
L 212.50632 182.084727 
L 215.581429 179.938909 
L 218.656537 186.376364 
L 221.731645 173.501455 
L 224.806753 167.064 
L 227.881861 179.938909 
L 230.95697 186.376364 
L 234.032078 156.334909 
L 237.107186 156.334909 
L 240.182294 201.397091 
L 243.257403 250.750909 
L 264.78316 250.750909 
L 267.858268 222.855273 
L 270.933377 218.563636 
L 274.008485 207.834545 
L 277.083593 203.542909 
L 280.158701 182.084727 
L 283.23381 182.084727 
L 286.308918 197.105455 
L 292.459134 179.938909 
L 295.534242 184.230545 
L 298.609351 203.542909 
L 301.684459 169.209818 
L 304.759567 160.626545 
L 307.834675 164.918182 
L 310.909784 192.813818 
L 313.984892 171.355636 
L 317.06 250.750909 
L 323.210216 250.750909 
L 326.285325 216.417818 
L 329.360433 250.750909 
L 335.510649 250.750909 
L 338.585758 212.126182 
L 341.660866 205.688727 
L 344.735974 194.959636 
L 347.811082 194.959636 
L 350.88619 179.938909 
L 353.961299 177.793091 
L 357.036407 203.542909 
L 360.111515 186.376364 
L 363.186623 186.376364 
L 369.33684 194.959636 
L 372.411948 162.772364 
L 375.487056 167.064 
L 378.562165 156.334909 
L 381.637273 192.813818 
L 384.712381 188.522182 
L 387.787489 197.105455 
L 390.862597 194.959636 
L 393.937706 250.750909 
L 412.388355 250.750909 
L 415.463463 216.417818 
L 418.538571 207.834545 
L 421.61368 197.105455 
L 424.688788 197.105455 
L 427.763896 190.668 
L 430.839004 171.355636 
L 433.914113 184.230545 
L 436.989221 192.813818 
L 440.064329 186.376364 
L 443.139437 173.501455 
L 446.214545 177.793091 
L 449.289654 173.501455 
L 452.364762 182.084727 
L 455.43987 158.480727 
L 458.514978 207.834545 
L 461.590087 188.522182 
L 464.665195 164.918182 
L 467.740303 250.750909 
L 486.190952 250.750909 
L 489.266061 192.813818 
L 492.341169 214.272 
L 495.416277 199.251273 
L 498.491385 188.522182 
L 501.566494 171.355636 
L 504.641602 182.084727 
L 507.71671 152.043273 
L 510.791818 167.064 
L 513.866926 197.105455 
L 516.942035 182.084727 
L 520.017143 154.189091 
L 523.092251 173.501455 
L 526.167359 175.647273 
L 529.242468 156.334909 
L 532.317576 173.501455 
L 535.392684 188.522182 
L 538.467792 188.522182 
L 541.5429 184.230545 
L 544.618009 201.397091 
L 547.693117 250.750909 
L 550.768225 214.272 
L 553.843333 250.750909 
L 556.918442 250.750909 
L 559.99355 222.855273 
L 563.068658 250.750909 
L 566.143766 218.563636 
L 569.218874 201.397091 
L 572.293983 194.959636 
L 575.369091 201.397091 
L 575.369091 201.397091 
" clip-path="url(#pd5db1329c7)" style="fill: none; stroke: #eda100; stroke-width: 1.4; stroke-linecap: square"/>
   </g>
   <g id="line2d_24">
    <path d="M 458.514978 261.48 
L 458.514978 25.44 
" clip-path="url(#pd5db1329c7)" style="fill: none; stroke: #9a9994; stroke-width: 0.8; stroke-linecap: square"/>
   </g>
   <g id="patch_3">
    <path d="M 32.92 261.48 
L 32.92 25.44 
" style="fill: none; stroke: #c3c2b7; stroke-width: 0.8; stroke-linejoin: miter; stroke-linecap: square"/>
   </g>
   <g id="patch_4">
    <path d="M 32.92 261.48 
L 601.2 261.48 
" style="fill: none; stroke: #c3c2b7; stroke-width: 0.8; stroke-linejoin: miter; stroke-linecap: square"/>
   </g>
   <g id="text_14">
    <!--  02/10 (día del anuncio) -->
    <g style="fill: #52514e" transform="translate(458.514978 36.705545) scale(0.07 -0.07)">
     <defs>
      <path id="DejaVuSans-3" transform="scale(0.015625)"/>
      <path id="DejaVuSans-12" d="M 1625 4666 
L 2156 4666 
L 531 -594 
L 0 -594 
L 1625 4666 
z
" transform="scale(0.015625)"/>
      <path id="DejaVuSans-b" d="M 1984 4856 
Q 1566 4138 1362 3434 
Q 1159 2731 1159 2009 
Q 1159 1288 1364 580 
Q 1569 -128 1984 -844 
L 1484 -844 
Q 1016 -109 783 600 
Q 550 1309 550 2009 
Q 550 2706 781 3412 
Q 1013 4119 1484 4856 
L 1984 4856 
z
" transform="scale(0.015625)"/>
      <path id="DejaVuSans-47" d="M 2906 2969 
L 2906 4863 
L 3481 4863 
L 3481 0 
L 2906 0 
L 2906 525 
Q 2725 213 2448 61 
Q 2172 -91 1784 -91 
Q 1150 -91 751 415 
Q 353 922 353 1747 
Q 353 2572 751 3078 
Q 1150 3584 1784 3584 
Q 2172 3584 2448 3432 
Q 2725 3281 2906 2969 
z
M 947 1747 
Q 947 1113 1208 752 
Q 1469 391 1925 391 
Q 2381 391 2643 752 
Q 2906 1113 2906 1747 
Q 2906 2381 2643 2742 
Q 2381 3103 1925 3103 
Q 1469 3103 1208 2742 
Q 947 2381 947 1747 
z
" transform="scale(0.015625)"/>
      <path id="DejaVuSans-af" d="M 1325 5119 
L 1947 5119 
L 929 3944 
L 450 3944 
L 1325 5119 
z
M 603 3500 
L 1178 3500 
L 1178 0 
L 603 0 
L 603 3500 
z
M 891 3584 
L 891 3584 
z
" transform="scale(0.015625)"/>
      <path id="DejaVuSans-44" d="M 2194 1759 
Q 1497 1759 1228 1600 
Q 959 1441 959 1056 
Q 959 750 1161 570 
Q 1363 391 1709 391 
Q 2188 391 2477 730 
Q 2766 1069 2766 1631 
L 2766 1759 
L 2194 1759 
z
M 3341 1997 
L 3341 0 
L 2766 0 
L 2766 531 
Q 2569 213 2275 61 
Q 1981 -91 1556 -91 
Q 1019 -91 701 211 
Q 384 513 384 1019 
Q 384 1609 779 1909 
Q 1175 2209 1959 2209 
L 2766 2209 
L 2766 2266 
Q 2766 2663 2505 2880 
Q 2244 3097 1772 3097 
Q 1472 3097 1187 3025 
Q 903 2953 641 2809 
L 641 3341 
Q 956 3463 1253 3523 
Q 1550 3584 1831 3584 
Q 2591 3584 2966 3190 
Q 3341 2797 3341 1997 
z
" transform="scale(0.015625)"/>
      <path id="DejaVuSans-48" d="M 3597 1894 
L 3597 1613 
L 953 1613 
Q 991 1019 1311 708 
Q 1631 397 2203 397 
Q 2534 397 2845 478 
Q 3156 559 3463 722 
L 3463 178 
Q 3153 47 2828 -22 
Q 2503 -91 2169 -91 
Q 1331 -91 842 396 
Q 353 884 353 1716 
Q 353 2575 817 3079 
Q 1281 3584 2069 3584 
Q 2775 3584 3186 3129 
Q 3597 2675 3597 1894 
z
M 3022 2063 
Q 3016 2534 2758 2815 
Q 2500 3097 2075 3097 
Q 1594 3097 1305 2825 
Q 1016 2553 972 2059 
L 3022 2063 
z
" transform="scale(0.015625)"/>
      <path id="DejaVuSans-4f" d="M 603 4863 
L 1178 4863 
L 1178 0 
L 603 0 
L 603 4863 
z
" transform="scale(0.015625)"/>
      <path id="DejaVuSans-51" d="M 3513 2113 
L 3513 0 
L 2938 0 
L 2938 2094 
Q 2938 2591 2744 2837 
Q 2550 3084 2163 3084 
Q 1697 3084 1428 2787 
Q 1159 2491 1159 1978 
L 1159 0 
L 581 0 
L 581 3500 
L 1159 3500 
L 1159 2956 
Q 1366 3272 1645 3428 
Q 1925 3584 2291 3584 
Q 2894 3584 3203 3211 
Q 3513 2838 3513 2113 
z
" transform="scale(0.015625)"/>
      <path id="DejaVuSans-58" d="M 544 1381 
L 544 3500 
L 1119 3500 
L 1119 1403 
Q 1119 906 1312 657 
Q 1506 409 1894 409 
Q 2359 409 2629 706 
Q 2900 1003 2900 1516 
L 2900 3500 
L 3475 3500 
L 3475 0 
L 2900 0 
L 2900 538 
Q 2691 219 2414 64 
Q 2138 -91 1772 -91 
Q 1169 -91 856 284 
Q 544 659 544 1381 
z
M 1991 3584 
L 1991 3584 
z
" transform="scale(0.015625)"/>
      <path id="DejaVuSans-46" d="M 3122 3366 
L 3122 2828 
Q 2878 2963 2633 3030 
Q 2388 3097 2138 3097 
Q 1578 3097 1268 2742 
Q 959 2388 959 1747 
Q 959 1106 1268 751 
Q 1578 397 2138 397 
Q 2388 397 2633 464 
Q 2878 531 3122 666 
L 3122 134 
Q 2881 22 2623 -34 
Q 2366 -91 2075 -91 
Q 1284 -91 818 406 
Q 353 903 353 1747 
Q 353 2603 823 3093 
Q 1294 3584 2113 3584 
Q 2378 3584 2631 3529 
Q 2884 3475 3122 3366 
z
" transform="scale(0.015625)"/>
      <path id="DejaVuSans-4c" d="M 603 3500 
L 1178 3500 
L 1178 0 
L 603 0 
L 603 3500 
z
M 603 4863 
L 1178 4863 
L 1178 4134 
L 603 4134 
L 603 4863 
z
" transform="scale(0.015625)"/>
      <path id="DejaVuSans-52" d="M 1959 3097 
Q 1497 3097 1228 2736 
Q 959 2375 959 1747 
Q 959 1119 1226 758 
Q 1494 397 1959 397 
Q 2419 397 2687 759 
Q 2956 1122 2956 1747 
Q 2956 2369 2687 2733 
Q 2419 3097 1959 3097 
z
M 1959 3584 
Q 2709 3584 3137 3096 
Q 3566 2609 3566 1747 
Q 3566 888 3137 398 
Q 2709 -91 1959 -91 
Q 1206 -91 779 398 
Q 353 888 353 1747 
Q 353 2609 779 3096 
Q 1206 3584 1959 3584 
z
" transform="scale(0.015625)"/>
      <path id="DejaVuSans-c" d="M 513 4856 
L 1013 4856 
Q 1481 4119 1714 3412 
Q 1947 2706 1947 2009 
Q 1947 1309 1714 600 
Q 1481 -109 1013 -844 
L 513 -844 
Q 928 -128 1133 580 
Q 1338 1288 1338 2009 
Q 1338 2731 1133 3434 
Q 928 4138 513 4856 
z
" transform="scale(0.015625)"/>
     </defs>
     <use xlink:href="#DejaVuSans-3"/>
     <use xlink:href="#DejaVuSans-13" transform="translate(31.78125 0)"/>
     <use xlink:href="#DejaVuSans-15" transform="translate(95.40625 0)"/>
     <use xlink:href="#DejaVuSans-12" transform="translate(159.03125 0)"/>
     <use xlink:href="#DejaVuSans-14" transform="translate(192.71875 0)"/>
     <use xlink:href="#DejaVuSans-13" transform="translate(256.34375 0)"/>
     <use xlink:href="#DejaVuSans-3" transform="translate(319.96875 0)"/>
     <use xlink:href="#DejaVuSans-b" transform="translate(351.75 0)"/>
     <use xlink:href="#DejaVuSans-47" transform="translate(390.765625 0)"/>
     <use xlink:href="#DejaVuSans-af" transform="translate(454.25 0)"/>
     <use xlink:href="#DejaVuSans-44" transform="translate(482.03125 0)"/>
     <use xlink:href="#DejaVuSans-3" transform="translate(543.3125 0)"/>
     <use xlink:href="#DejaVuSans-47" transform="translate(575.09375 0)"/>
     <use xlink:href="#DejaVuSans-48" transform="translate(638.578125 0)"/>
     <use xlink:href="#DejaVuSans-4f" transform="translate(700.109375 0)"/>
     <use xlink:href="#DejaVuSans-3" transform="translate(727.890625 0)"/>
     <use xlink:href="#DejaVuSans-44" transform="translate(759.671875 0)"/>
     <use xlink:href="#DejaVuSans-51" transform="translate(820.953125 0)"/>
     <use xlink:href="#DejaVuSans-58" transform="translate(884.328125 0)"/>
     <use xlink:href="#DejaVuSans-51" transform="translate(947.703125 0)"/>
     <use xlink:href="#DejaVuSans-46" transform="translate(1011.078125 0)"/>
     <use xlink:href="#DejaVuSans-4c" transform="translate(1066.0625 0)"/>
     <use xlink:href="#DejaVuSans-52" transform="translate(1093.84375 0)"/>
     <use xlink:href="#DejaVuSans-c" transform="translate(1155.03125 0)"/>
    </g>
   </g>
   <g id="text_15">
    <!-- mundo: búsquedas horarias, últimos 7 días -->
    <g style="fill: #0b0b0b" transform="translate(32.92 19.44) scale(0.105 -0.105)">
     <defs>
      <path id="DejaVuSans-50" d="M 3328 2828 
Q 3544 3216 3844 3400 
Q 4144 3584 4550 3584 
Q 5097 3584 5394 3201 
Q 5691 2819 5691 2113 
L 5691 0 
L 5113 0 
L 5113 2094 
Q 5113 2597 4934 2840 
Q 4756 3084 4391 3084 
Q 3944 3084 3684 2787 
Q 3425 2491 3425 1978 
L 3425 0 
L 2847 0 
L 2847 2094 
Q 2847 2600 2669 2842 
Q 2491 3084 2119 3084 
Q 1678 3084 1418 2786 
Q 1159 2488 1159 1978 
L 1159 0 
L 581 0 
L 581 3500 
L 1159 3500 
L 1159 2956 
Q 1356 3278 1631 3431 
Q 1906 3584 2284 3584 
Q 2666 3584 2933 3390 
Q 3200 3197 3328 2828 
z
" transform="scale(0.015625)"/>
      <path id="DejaVuSans-1d" d="M 750 794 
L 1409 794 
L 1409 0 
L 750 0 
L 750 794 
z
M 750 3309 
L 1409 3309 
L 1409 2516 
L 750 2516 
L 750 3309 
z
" transform="scale(0.015625)"/>
      <path id="DejaVuSans-45" d="M 3116 1747 
Q 3116 2381 2855 2742 
Q 2594 3103 2138 3103 
Q 1681 3103 1420 2742 
Q 1159 2381 1159 1747 
Q 1159 1113 1420 752 
Q 1681 391 2138 391 
Q 2594 391 2855 752 
Q 3116 1113 3116 1747 
z
M 1159 2969 
Q 1341 3281 1617 3432 
Q 1894 3584 2278 3584 
Q 2916 3584 3314 3078 
Q 3713 2572 3713 1747 
Q 3713 922 3314 415 
Q 2916 -91 2278 -91 
Q 1894 -91 1617 61 
Q 1341 213 1159 525 
L 1159 0 
L 581 0 
L 581 4863 
L 1159 4863 
L 1159 2969 
z
" transform="scale(0.015625)"/>
      <path id="DejaVuSans-bc" d="M 544 1381 
L 544 3500 
L 1119 3500 
L 1119 1403 
Q 1119 906 1312 657 
Q 1506 409 1894 409 
Q 2359 409 2629 706 
Q 2900 1003 2900 1516 
L 2900 3500 
L 3475 3500 
L 3475 0 
L 2900 0 
L 2900 538 
Q 2691 219 2414 64 
Q 2138 -91 1772 -91 
Q 1169 -91 856 284 
Q 544 659 544 1381 
z
M 1991 3584 
L 1991 3584 
z
M 2418 5119 
L 3040 5119 
L 2022 3944 
L 1543 3944 
L 2418 5119 
z
" transform="scale(0.015625)"/>
      <path id="DejaVuSans-56" d="M 2834 3397 
L 2834 2853 
Q 2591 2978 2328 3040 
Q 2066 3103 1784 3103 
Q 1356 3103 1142 2972 
Q 928 2841 928 2578 
Q 928 2378 1081 2264 
Q 1234 2150 1697 2047 
L 1894 2003 
Q 2506 1872 2764 1633 
Q 3022 1394 3022 966 
Q 3022 478 2636 193 
Q 2250 -91 1575 -91 
Q 1294 -91 989 -36 
Q 684 19 347 128 
L 347 722 
Q 666 556 975 473 
Q 1284 391 1588 391 
Q 1994 391 2212 530 
Q 2431 669 2431 922 
Q 2431 1156 2273 1281 
Q 2116 1406 1581 1522 
L 1381 1569 
Q 847 1681 609 1914 
Q 372 2147 372 2553 
Q 372 3047 722 3315 
Q 1072 3584 1716 3584 
Q 2034 3584 2315 3537 
Q 2597 3491 2834 3397 
z
" transform="scale(0.015625)"/>
      <path id="DejaVuSans-54" d="M 947 1747 
Q 947 1113 1208 752 
Q 1469 391 1925 391 
Q 2381 391 2643 752 
Q 2906 1113 2906 1747 
Q 2906 2381 2643 2742 
Q 2381 3103 1925 3103 
Q 1469 3103 1208 2742 
Q 947 2381 947 1747 
z
M 2906 525 
Q 2725 213 2448 61 
Q 2172 -91 1784 -91 
Q 1150 -91 751 415 
Q 353 922 353 1747 
Q 353 2572 751 3078 
Q 1150 3584 1784 3584 
Q 2172 3584 2448 3432 
Q 2725 3281 2906 2969 
L 2906 3500 
L 3481 3500 
L 3481 -1331 
L 2906 -1331 
L 2906 525 
z
" transform="scale(0.015625)"/>
      <path id="DejaVuSans-4b" d="M 3513 2113 
L 3513 0 
L 2938 0 
L 2938 2094 
Q 2938 2591 2744 2837 
Q 2550 3084 2163 3084 
Q 1697 3084 1428 2787 
Q 1159 2491 1159 1978 
L 1159 0 
L 581 0 
L 581 4863 
L 1159 4863 
L 1159 2956 
Q 1366 3272 1645 3428 
Q 1925 3584 2291 3584 
Q 2894 3584 3203 3211 
Q 3513 2838 3513 2113 
z
" transform="scale(0.015625)"/>
      <path id="DejaVuSans-55" d="M 2631 2963 
Q 2534 3019 2420 3045 
Q 2306 3072 2169 3072 
Q 1681 3072 1420 2755 
Q 1159 2438 1159 1844 
L 1159 0 
L 581 0 
L 581 3500 
L 1159 3500 
L 1159 2956 
Q 1341 3275 1631 3429 
Q 1922 3584 2338 3584 
Q 2397 3584 2469 3576 
Q 2541 3569 2628 3553 
L 2631 2963 
z
" transform="scale(0.015625)"/>
      <path id="DejaVuSans-f" d="M 750 794 
L 1409 794 
L 1409 256 
L 897 -744 
L 494 -744 
L 750 256 
L 750 794 
z
" transform="scale(0.015625)"/>
      <path id="DejaVuSans-57" d="M 1172 4494 
L 1172 3500 
L 2356 3500 
L 2356 3053 
L 1172 3053 
L 1172 1153 
Q 1172 725 1289 603 
Q 1406 481 1766 481 
L 2356 481 
L 2356 0 
L 1766 0 
Q 1100 0 847 248 
Q 594 497 594 1153 
L 594 3053 
L 172 3053 
L 172 3500 
L 594 3500 
L 594 4494 
L 1172 4494 
z
" transform="scale(0.015625)"/>
     </defs>
     <use xlink:href="#DejaVuSans-50"/>
     <use xlink:href="#DejaVuSans-58" transform="translate(97.40625 0)"/>
     <use xlink:href="#DejaVuSans-51" transform="translate(160.78125 0)"/>
     <use xlink:href="#DejaVuSans-47" transform="translate(224.15625 0)"/>
     <use xlink:href="#DejaVuSans-52" transform="translate(287.640625 0)"/>
     <use xlink:href="#DejaVuSans-1d" transform="translate(348.828125 0)"/>
     <use xlink:href="#DejaVuSans-3" transform="translate(382.515625 0)"/>
     <use xlink:href="#DejaVuSans-45" transform="translate(414.296875 0)"/>
     <use xlink:href="#DejaVuSans-bc" transform="translate(477.78125 0)"/>
     <use xlink:href="#DejaVuSans-56" transform="translate(541.15625 0)"/>
     <use xlink:href="#DejaVuSans-54" transform="translate(593.25 0)"/>
     <use xlink:href="#DejaVuSans-58" transform="translate(656.734375 0)"/>
     <use xlink:href="#DejaVuSans-48" transform="translate(720.109375 0)"/>
     <use xlink:href="#DejaVuSans-47" transform="translate(781.640625 0)"/>
     <use xlink:href="#DejaVuSans-44" transform="translate(845.125 0)"/>
     <use xlink:href="#DejaVuSans-56" transform="translate(906.40625 0)"/>
     <use xlink:href="#DejaVuSans-3" transform="translate(958.5 0)"/>
     <use xlink:href="#DejaVuSans-4b" transform="translate(990.28125 0)"/>
     <use xlink:href="#DejaVuSans-52" transform="translate(1053.65625 0)"/>
     <use xlink:href="#DejaVuSans-55" transform="translate(1114.84375 0)"/>
     <use xlink:href="#DejaVuSans-44" transform="translate(1155.953125 0)"/>
     <use xlink:href="#DejaVuSans-55" transform="translate(1217.234375 0)"/>
     <use xlink:href="#DejaVuSans-4c" transform="translate(1258.34375 0)"/>
     <use xlink:href="#DejaVuSans-44" transform="translate(1286.125 0)"/>
     <use xlink:href="#DejaVuSans-56" transform="translate(1347.40625 0)"/>
     <use xlink:href="#DejaVuSans-f" transform="translate(1399.5 0)"/>
     <use xlink:href="#DejaVuSans-3" transform="translate(1431.28125 0)"/>
     <use xlink:href="#DejaVuSans-bc" transform="translate(1463.0625 0)"/>
     <use xlink:href="#DejaVuSans-4f" transform="translate(1526.4375 0)"/>
     <use xlink:href="#DejaVuSans-57" transform="translate(1554.21875 0)"/>
     <use xlink:href="#DejaVuSans-4c" transform="translate(1593.421875 0)"/>
     <use xlink:href="#DejaVuSans-50" transform="translate(1621.203125 0)"/>
     <use xlink:href="#DejaVuSans-52" transform="translate(1718.609375 0)"/>
     <use xlink:href="#DejaVuSans-56" transform="translate(1779.796875 0)"/>
     <use xlink:href="#DejaVuSans-3" transform="translate(1831.890625 0)"/>
     <use xlink:href="#DejaVuSans-1a" transform="translate(1863.671875 0)"/>
     <use xlink:href="#DejaVuSans-3" transform="translate(1927.296875 0)"/>
     <use xlink:href="#DejaVuSans-47" transform="translate(1959.078125 0)"/>
     <use xlink:href="#DejaVuSans-af" transform="translate(2022.5625 0)"/>
     <use xlink:href="#DejaVuSans-44" transform="translate(2050.34375 0)"/>
     <use xlink:href="#DejaVuSans-56" transform="translate(2111.625 0)"/>
    </g>
   </g>
   <g id="legend_1">
    <g id="line2d_25">
     <path d="M 39.67 35.263828 
L 47.17 35.263828 
L 54.67 35.263828 
" style="fill: none; stroke: #2a78d6; stroke-width: 1.4; stroke-linecap: square"/>
    </g>
    <g id="text_16">
     <!-- argentina citizenship -->
     <g transform="translate(60.67 37.888828) scale(0.075 -0.075)">
      <defs>
       <path id="DejaVuSans-4a" d="M 2906 1791 
Q 2906 2416 2648 2759 
Q 2391 3103 1925 3103 
Q 1463 3103 1205 2759 
Q 947 2416 947 1791 
Q 947 1169 1205 825 
Q 1463 481 1925 481 
Q 2391 481 2648 825 
Q 2906 1169 2906 1791 
z
M 3481 434 
Q 3481 -459 3084 -895 
Q 2688 -1331 1869 -1331 
Q 1566 -1331 1297 -1286 
Q 1028 -1241 775 -1147 
L 775 -588 
Q 1028 -725 1275 -790 
Q 1522 -856 1778 -856 
Q 2344 -856 2625 -561 
Q 2906 -266 2906 331 
L 2906 616 
Q 2728 306 2450 153 
Q 2172 0 1784 0 
Q 1141 0 747 490 
Q 353 981 353 1791 
Q 353 2603 747 3093 
Q 1141 3584 1784 3584 
Q 2172 3584 2450 3431 
Q 2728 3278 2906 2969 
L 2906 3500 
L 3481 3500 
L 3481 434 
z
" transform="scale(0.015625)"/>
       <path id="DejaVuSans-5d" d="M 353 3500 
L 3084 3500 
L 3084 2975 
L 922 459 
L 3084 459 
L 3084 0 
L 275 0 
L 275 525 
L 2438 3041 
L 353 3041 
L 353 3500 
z
" transform="scale(0.015625)"/>
       <path id="DejaVuSans-53" d="M 1159 525 
L 1159 -1331 
L 581 -1331 
L 581 3500 
L 1159 3500 
L 1159 2969 
Q 1341 3281 1617 3432 
Q 1894 3584 2278 3584 
Q 2916 3584 3314 3078 
Q 3713 2572 3713 1747 
Q 3713 922 3314 415 
Q 2916 -91 2278 -91 
Q 1894 -91 1617 61 
Q 1341 213 1159 525 
z
M 3116 1747 
Q 3116 2381 2855 2742 
Q 2594 3103 2138 3103 
Q 1681 3103 1420 2742 
Q 1159 2381 1159 1747 
Q 1159 1113 1420 752 
Q 1681 391 2138 391 
Q 2594 391 2855 752 
Q 3116 1113 3116 1747 
z
" transform="scale(0.015625)"/>
      </defs>
      <use xlink:href="#DejaVuSans-44"/>
      <use xlink:href="#DejaVuSans-55" transform="translate(61.28125 0)"/>
      <use xlink:href="#DejaVuSans-4a" transform="translate(100.640625 0)"/>
      <use xlink:href="#DejaVuSans-48" transform="translate(164.125 0)"/>
      <use xlink:href="#DejaVuSans-51" transform="translate(225.65625 0)"/>
      <use xlink:href="#DejaVuSans-57" transform="translate(289.03125 0)"/>
      <use xlink:href="#DejaVuSans-4c" transform="translate(328.234375 0)"/>
      <use xlink:href="#DejaVuSans-51" transform="translate(356.015625 0)"/>
      <use xlink:href="#DejaVuSans-44" transform="translate(419.390625 0)"/>
      <use xlink:href="#DejaVuSans-3" transform="translate(480.671875 0)"/>
      <use xlink:href="#DejaVuSans-46" transform="translate(512.453125 0)"/>
      <use xlink:href="#DejaVuSans-4c" transform="translate(567.4375 0)"/>
      <use xlink:href="#DejaVuSans-57" transform="translate(595.21875 0)"/>
      <use xlink:href="#DejaVuSans-4c" transform="translate(634.421875 0)"/>
      <use xlink:href="#DejaVuSans-5d" transform="translate(662.203125 0)"/>
      <use xlink:href="#DejaVuSans-48" transform="translate(714.6875 0)"/>
      <use xlink:href="#DejaVuSans-51" transform="translate(776.21875 0)"/>
      <use xlink:href="#DejaVuSans-56" transform="translate(839.59375 0)"/>
      <use xlink:href="#DejaVuSans-4b" transform="translate(891.6875 0)"/>
      <use xlink:href="#DejaVuSans-4c" transform="translate(955.0625 0)"/>
      <use xlink:href="#DejaVuSans-53" transform="translate(982.84375 0)"/>
     </g>
    </g>
    <g id="line2d_26">
     <path d="M 39.67 46.514414 
L 47.17 46.514414 
L 54.67 46.514414 
" style="fill: none; stroke: #eb6834; stroke-width: 1.4; stroke-linecap: square"/>
    </g>
    <g id="text_17">
     <!-- argentina passport -->
     <g transform="translate(60.67 49.139414) scale(0.075 -0.075)">
      <use xlink:href="#DejaVuSans-44"/>
      <use xlink:href="#DejaVuSans-55" transform="translate(61.28125 0)"/>
      <use xlink:href="#DejaVuSans-4a" transform="translate(100.640625 0)"/>
      <use xlink:href="#DejaVuSans-48" transform="translate(164.125 0)"/>
      <use xlink:href="#DejaVuSans-51" transform="translate(225.65625 0)"/>
      <use xlink:href="#DejaVuSans-57" transform="translate(289.03125 0)"/>
      <use xlink:href="#DejaVuSans-4c" transform="translate(328.234375 0)"/>
      <use xlink:href="#DejaVuSans-51" transform="translate(356.015625 0)"/>
      <use xlink:href="#DejaVuSans-44" transform="translate(419.390625 0)"/>
      <use xlink:href="#DejaVuSans-3" transform="translate(480.671875 0)"/>
      <use xlink:href="#DejaVuSans-53" transform="translate(512.453125 0)"/>
      <use xlink:href="#DejaVuSans-44" transform="translate(575.9375 0)"/>
      <use xlink:href="#DejaVuSans-56" transform="translate(637.21875 0)"/>
      <use xlink:href="#DejaVuSans-56" transform="translate(689.3125 0)"/>
      <use xlink:href="#DejaVuSans-53" transform="translate(741.40625 0)"/>
      <use xlink:href="#DejaVuSans-52" transform="translate(804.890625 0)"/>
      <use xlink:href="#DejaVuSans-55" transform="translate(866.078125 0)"/>
      <use xlink:href="#DejaVuSans-57" transform="translate(907.1875 0)"/>
     </g>
    </g>
    <g id="line2d_27">
     <path d="M 39.67 57.765 
L 47.17 57.765 
L 54.67 57.765 
" style="fill: none; stroke: #1baf7a; stroke-width: 1.4; stroke-linecap: square"/>
    </g>
    <g id="text_18">
     <!-- ciudadania argentina -->
     <g transform="translate(60.67 60.39) scale(0.075 -0.075)">
      <use xlink:href="#DejaVuSans-46"/>
      <use xlink:href="#DejaVuSans-4c" transform="translate(54.984375 0)"/>
      <use xlink:href="#DejaVuSans-58" transform="translate(82.765625 0)"/>
      <use xlink:href="#DejaVuSans-47" transform="translate(146.140625 0)"/>
      <use xlink:href="#DejaVuSans-44" transform="translate(209.625 0)"/>
      <use xlink:href="#DejaVuSans-47" transform="translate(270.90625 0)"/>
      <use xlink:href="#DejaVuSans-44" transform="translate(334.390625 0)"/>
      <use xlink:href="#DejaVuSans-51" transform="translate(395.671875 0)"/>
      <use xlink:href="#DejaVuSans-4c" transform="translate(459.046875 0)"/>
      <use xlink:href="#DejaVuSans-44" transform="translate(486.828125 0)"/>
      <use xlink:href="#DejaVuSans-3" transform="translate(548.109375 0)"/>
      <use xlink:href="#DejaVuSans-44" transform="translate(579.890625 0)"/>
      <use xlink:href="#DejaVuSans-55" transform="translate(641.171875 0)"/>
      <use xlink:href="#DejaVuSans-4a" transform="translate(680.53125 0)"/>
      <use xlink:href="#DejaVuSans-48" transform="translate(744.015625 0)"/>
      <use xlink:href="#DejaVuSans-51" transform="translate(805.546875 0)"/>
      <use xlink:href="#DejaVuSans-57" transform="translate(868.921875 0)"/>
      <use xlink:href="#DejaVuSans-4c" transform="translate(908.125 0)"/>
      <use xlink:href="#DejaVuSans-51" transform="translate(935.90625 0)"/>
      <use xlink:href="#DejaVuSans-44" transform="translate(999.28125 0)"/>
     </g>
    </g>
    <g id="line2d_28">
     <path d="M 39.67 69.015586 
L 47.17 69.015586 
L 54.67 69.015586 
" style="fill: none; stroke: #eda100; stroke-width: 1.4; stroke-linecap: square"/>
    </g>
    <g id="text_19">
     <!-- pasaporte argentino -->
     <g transform="translate(60.67 71.640586) scale(0.075 -0.075)">
      <use xlink:href="#DejaVuSans-53"/>
      <use xlink:href="#DejaVuSans-44" transform="translate(63.484375 0)"/>
      <use xlink:href="#DejaVuSans-56" transform="translate(124.765625 0)"/>
      <use xlink:href="#DejaVuSans-44" transform="translate(176.859375 0)"/>
      <use xlink:href="#DejaVuSans-53" transform="translate(238.140625 0)"/>
      <use xlink:href="#DejaVuSans-52" transform="translate(301.625 0)"/>
      <use xlink:href="#DejaVuSans-55" transform="translate(362.8125 0)"/>
      <use xlink:href="#DejaVuSans-57" transform="translate(403.921875 0)"/>
      <use xlink:href="#DejaVuSans-48" transform="translate(443.125 0)"/>
      <use xlink:href="#DejaVuSans-3" transform="translate(504.65625 0)"/>
      <use xlink:href="#DejaVuSans-44" transform="translate(536.4375 0)"/>
      <use xlink:href="#DejaVuSans-55" transform="translate(597.71875 0)"/>
      <use xlink:href="#DejaVuSans-4a" transform="translate(637.078125 0)"/>
      <use xlink:href="#DejaVuSans-48" transform="translate(700.5625 0)"/>
      <use xlink:href="#DejaVuSans-51" transform="translate(762.09375 0)"/>
      <use xlink:href="#DejaVuSans-57" transform="translate(825.46875 0)"/>
      <use xlink:href="#DejaVuSans-4c" transform="translate(864.671875 0)"/>
      <use xlink:href="#DejaVuSans-51" transform="translate(892.453125 0)"/>
      <use xlink:href="#DejaVuSans-52" transform="translate(955.828125 0)"/>
     </g>
    </g>
   </g>
  </g>
  <g id="text_20">
   <!-- Fuente: Google Trends (geo=mundo, now 7-d, horas UTC), índice relativo 0–100, descargado 2026-10-03. Elaboración: Colossus Lab. -->
   <g style="fill: #52514e" transform="translate(6.12 297.814477) scale(0.065 -0.065)">
    <defs>
     <path id="DejaVuSans-29" d="M 628 4666 
L 3309 4666 
L 3309 4134 
L 1259 4134 
L 1259 2759 
L 3109 2759 
L 3109 2228 
L 1259 2228 
L 1259 0 
L 628 0 
L 628 4666 
z
" transform="scale(0.015625)"/>
     <path id="DejaVuSans-2a" d="M 3809 666 
L 3809 1919 
L 2778 1919 
L 2778 2438 
L 4434 2438 
L 4434 434 
Q 4069 175 3628 42 
Q 3188 -91 2688 -91 
Q 1594 -91 976 548 
Q 359 1188 359 2328 
Q 359 3472 976 4111 
Q 1594 4750 2688 4750 
Q 3144 4750 3555 4637 
Q 3966 4525 4313 4306 
L 4313 3634 
Q 3963 3931 3569 4081 
Q 3175 4231 2741 4231 
Q 1884 4231 1454 3753 
Q 1025 3275 1025 2328 
Q 1025 1384 1454 906 
Q 1884 428 2741 428 
Q 3075 428 3337 486 
Q 3600 544 3809 666 
z
" transform="scale(0.015625)"/>
     <path id="DejaVuSans-37" d="M -19 4666 
L 3928 4666 
L 3928 4134 
L 2272 4134 
L 2272 0 
L 1638 0 
L 1638 4134 
L -19 4134 
L -19 4666 
z
" transform="scale(0.015625)"/>
     <path id="DejaVuSans-20" d="M 678 2906 
L 4684 2906 
L 4684 2381 
L 678 2381 
L 678 2906 
z
M 678 1631 
L 4684 1631 
L 4684 1100 
L 678 1100 
L 678 1631 
z
" transform="scale(0.015625)"/>
     <path id="DejaVuSans-5a" d="M 269 3500 
L 844 3500 
L 1563 769 
L 2278 3500 
L 2956 3500 
L 3675 769 
L 4391 3500 
L 4966 3500 
L 4050 0 
L 3372 0 
L 2619 2869 
L 1863 0 
L 1184 0 
L 269 3500 
z
" transform="scale(0.015625)"/>
     <path id="DejaVuSans-38" d="M 556 4666 
L 1191 4666 
L 1191 1831 
Q 1191 1081 1462 751 
Q 1734 422 2344 422 
Q 2950 422 3222 751 
Q 3494 1081 3494 1831 
L 3494 4666 
L 4128 4666 
L 4128 1753 
Q 4128 841 3676 375 
Q 3225 -91 2344 -91 
Q 1459 -91 1007 375 
Q 556 841 556 1753 
L 556 4666 
z
" transform="scale(0.015625)"/>
     <path id="DejaVuSans-26" d="M 4122 4306 
L 4122 3641 
Q 3803 3938 3442 4084 
Q 3081 4231 2675 4231 
Q 1875 4231 1450 3742 
Q 1025 3253 1025 2328 
Q 1025 1406 1450 917 
Q 1875 428 2675 428 
Q 3081 428 3442 575 
Q 3803 722 4122 1019 
L 4122 359 
Q 3791 134 3420 21 
Q 3050 -91 2638 -91 
Q 1578 -91 968 557 
Q 359 1206 359 2328 
Q 359 3453 968 4101 
Q 1578 4750 2638 4750 
Q 3056 4750 3426 4639 
Q 3797 4528 4122 4306 
z
" transform="scale(0.015625)"/>
     <path id="DejaVuSans-59" d="M 191 3500 
L 800 3500 
L 1894 563 
L 2988 3500 
L 3597 3500 
L 2284 0 
L 1503 0 
L 191 3500 
z
" transform="scale(0.015625)"/>
     <path id="DejaVuSans-af5" d="M 313 1978 
L 2888 1978 
L 2888 1528 
L 313 1528 
L 313 1978 
z
" transform="scale(0.015625)"/>
     <path id="DejaVuSans-11" d="M 684 794 
L 1344 794 
L 1344 0 
L 684 0 
L 684 794 
z
" transform="scale(0.015625)"/>
     <path id="DejaVuSans-28" d="M 628 4666 
L 3578 4666 
L 3578 4134 
L 1259 4134 
L 1259 2753 
L 3481 2753 
L 3481 2222 
L 1259 2222 
L 1259 531 
L 3634 531 
L 3634 0 
L 628 0 
L 628 4666 
z
" transform="scale(0.015625)"/>
     <path id="DejaVuSans-b5" d="M 1959 3097 
Q 1497 3097 1228 2736 
Q 959 2375 959 1747 
Q 959 1119 1226 758 
Q 1494 397 1959 397 
Q 2419 397 2687 759 
Q 2956 1122 2956 1747 
Q 2956 2369 2687 2733 
Q 2419 3097 1959 3097 
z
M 1959 3584 
Q 2709 3584 3137 3096 
Q 3566 2609 3566 1747 
Q 3566 888 3137 398 
Q 2709 -91 1959 -91 
Q 1206 -91 779 398 
Q 353 888 353 1747 
Q 353 2609 779 3096 
Q 1206 3584 1959 3584 
z
M 2393 5119 
L 3015 5119 
L 1997 3944 
L 1518 3944 
L 2393 5119 
z
" transform="scale(0.015625)"/>
     <path id="DejaVuSans-2f" d="M 628 4666 
L 1259 4666 
L 1259 531 
L 3531 531 
L 3531 0 
L 628 0 
L 628 4666 
z
" transform="scale(0.015625)"/>
    </defs>
    <use xlink:href="#DejaVuSans-29"/>
    <use xlink:href="#DejaVuSans-58" transform="translate(52.046875 0)"/>
    <use xlink:href="#DejaVuSans-48" transform="translate(115.421875 0)"/>
    <use xlink:href="#DejaVuSans-51" transform="translate(176.953125 0)"/>
    <use xlink:href="#DejaVuSans-57" transform="translate(240.328125 0)"/>
    <use xlink:href="#DejaVuSans-48" transform="translate(279.53125 0)"/>
    <use xlink:href="#DejaVuSans-1d" transform="translate(341.0625 0)"/>
    <use xlink:href="#DejaVuSans-3" transform="translate(374.75 0)"/>
    <use xlink:href="#DejaVuSans-2a" transform="translate(406.53125 0)"/>
    <use xlink:href="#DejaVuSans-52" transform="translate(484.015625 0)"/>
    <use xlink:href="#DejaVuSans-52" transform="translate(545.203125 0)"/>
    <use xlink:href="#DejaVuSans-4a" transform="translate(606.390625 0)"/>
    <use xlink:href="#DejaVuSans-4f" transform="translate(669.875 0)"/>
    <use xlink:href="#DejaVuSans-48" transform="translate(697.65625 0)"/>
    <use xlink:href="#DejaVuSans-3" transform="translate(759.1875 0)"/>
    <use xlink:href="#DejaVuSans-37" transform="translate(790.96875 0)"/>
    <use xlink:href="#DejaVuSans-55" transform="translate(837.34375 0)"/>
    <use xlink:href="#DejaVuSans-48" transform="translate(876.25 0)"/>
    <use xlink:href="#DejaVuSans-51" transform="translate(937.78125 0)"/>
    <use xlink:href="#DejaVuSans-47" transform="translate(1001.15625 0)"/>
    <use xlink:href="#DejaVuSans-56" transform="translate(1064.640625 0)"/>
    <use xlink:href="#DejaVuSans-3" transform="translate(1116.734375 0)"/>
    <use xlink:href="#DejaVuSans-b" transform="translate(1148.515625 0)"/>
    <use xlink:href="#DejaVuSans-4a" transform="translate(1187.53125 0)"/>
    <use xlink:href="#DejaVuSans-48" transform="translate(1251.015625 0)"/>
    <use xlink:href="#DejaVuSans-52" transform="translate(1312.546875 0)"/>
    <use xlink:href="#DejaVuSans-20" transform="translate(1373.734375 0)"/>
    <use xlink:href="#DejaVuSans-50" transform="translate(1457.53125 0)"/>
    <use xlink:href="#DejaVuSans-58" transform="translate(1554.9375 0)"/>
    <use xlink:href="#DejaVuSans-51" transform="translate(1618.3125 0)"/>
    <use xlink:href="#DejaVuSans-47" transform="translate(1681.6875 0)"/>
    <use xlink:href="#DejaVuSans-52" transform="translate(1745.171875 0)"/>
    <use xlink:href="#DejaVuSans-f" transform="translate(1806.359375 0)"/>
    <use xlink:href="#DejaVuSans-3" transform="translate(1838.140625 0)"/>
    <use xlink:href="#DejaVuSans-51" transform="translate(1869.921875 0)"/>
    <use xlink:href="#DejaVuSans-52" transform="translate(1933.296875 0)"/>
    <use xlink:href="#DejaVuSans-5a" transform="translate(1994.484375 0)"/>
    <use xlink:href="#DejaVuSans-3" transform="translate(2076.265625 0)"/>
    <use xlink:href="#DejaVuSans-1a" transform="translate(2108.046875 0)"/>
    <use xlink:href="#DejaVuSans-10" transform="translate(2171.671875 0)"/>
    <use xlink:href="#DejaVuSans-47" transform="translate(2207.75 0)"/>
    <use xlink:href="#DejaVuSans-f" transform="translate(2271.234375 0)"/>
    <use xlink:href="#DejaVuSans-3" transform="translate(2303.015625 0)"/>
    <use xlink:href="#DejaVuSans-4b" transform="translate(2334.796875 0)"/>
    <use xlink:href="#DejaVuSans-52" transform="translate(2398.171875 0)"/>
    <use xlink:href="#DejaVuSans-55" transform="translate(2459.359375 0)"/>
    <use xlink:href="#DejaVuSans-44" transform="translate(2500.46875 0)"/>
    <use xlink:href="#DejaVuSans-56" transform="translate(2561.75 0)"/>
    <use xlink:href="#DejaVuSans-3" transform="translate(2613.84375 0)"/>
    <use xlink:href="#DejaVuSans-38" transform="translate(2645.625 0)"/>
    <use xlink:href="#DejaVuSans-37" transform="translate(2718.8125 0)"/>
    <use xlink:href="#DejaVuSans-26" transform="translate(2774.03125 0)"/>
    <use xlink:href="#DejaVuSans-c" transform="translate(2843.859375 0)"/>
    <use xlink:href="#DejaVuSans-f" transform="translate(2882.875 0)"/>
    <use xlink:href="#DejaVuSans-3" transform="translate(2914.65625 0)"/>
    <use xlink:href="#DejaVuSans-af" transform="translate(2946.4375 0)"/>
    <use xlink:href="#DejaVuSans-51" transform="translate(2974.21875 0)"/>
    <use xlink:href="#DejaVuSans-47" transform="translate(3037.59375 0)"/>
    <use xlink:href="#DejaVuSans-4c" transform="translate(3101.078125 0)"/>
    <use xlink:href="#DejaVuSans-46" transform="translate(3128.859375 0)"/>
    <use xlink:href="#DejaVuSans-48" transform="translate(3183.84375 0)"/>
    <use xlink:href="#DejaVuSans-3" transform="translate(3245.375 0)"/>
    <use xlink:href="#DejaVuSans-55" transform="translate(3277.15625 0)"/>
    <use xlink:href="#DejaVuSans-48" transform="translate(3316.0625 0)"/>
    <use xlink:href="#DejaVuSans-4f" transform="translate(3377.59375 0)"/>
    <use xlink:href="#DejaVuSans-44" transform="translate(3405.375 0)"/>
    <use xlink:href="#DejaVuSans-57" transform="translate(3466.65625 0)"/>
    <use xlink:href="#DejaVuSans-4c" transform="translate(3505.859375 0)"/>
    <use xlink:href="#DejaVuSans-59" transform="translate(3533.640625 0)"/>
    <use xlink:href="#DejaVuSans-52" transform="translate(3592.828125 0)"/>
    <use xlink:href="#DejaVuSans-3" transform="translate(3654.015625 0)"/>
    <use xlink:href="#DejaVuSans-13" transform="translate(3685.796875 0)"/>
    <use xlink:href="#DejaVuSans-af5" transform="translate(3749.421875 0)"/>
    <use xlink:href="#DejaVuSans-14" transform="translate(3799.421875 0)"/>
    <use xlink:href="#DejaVuSans-13" transform="translate(3863.046875 0)"/>
    <use xlink:href="#DejaVuSans-13" transform="translate(3926.671875 0)"/>
    <use xlink:href="#DejaVuSans-f" transform="translate(3990.296875 0)"/>
    <use xlink:href="#DejaVuSans-3" transform="translate(4022.078125 0)"/>
    <use xlink:href="#DejaVuSans-47" transform="translate(4053.859375 0)"/>
    <use xlink:href="#DejaVuSans-48" transform="translate(4117.34375 0)"/>
    <use xlink:href="#DejaVuSans-56" transform="translate(4178.875 0)"/>
    <use xlink:href="#DejaVuSans-46" transform="translate(4230.96875 0)"/>
    <use xlink:href="#DejaVuSans-44" transform="translate(4285.953125 0)"/>
    <use xlink:href="#DejaVuSans-55" transform="translate(4347.234375 0)"/>
    <use xlink:href="#DejaVuSans-4a" transform="translate(4386.59375 0)"/>
    <use xlink:href="#DejaVuSans-44" transform="translate(4450.078125 0)"/>
    <use xlink:href="#DejaVuSans-47" transform="translate(4511.359375 0)"/>
    <use xlink:href="#DejaVuSans-52" transform="translate(4574.84375 0)"/>
    <use xlink:href="#DejaVuSans-3" transform="translate(4636.03125 0)"/>
    <use xlink:href="#DejaVuSans-15" transform="translate(4667.8125 0)"/>
    <use xlink:href="#DejaVuSans-13" transform="translate(4731.4375 0)"/>
    <use xlink:href="#DejaVuSans-15" transform="translate(4795.0625 0)"/>
    <use xlink:href="#DejaVuSans-19" transform="translate(4858.6875 0)"/>
    <use xlink:href="#DejaVuSans-10" transform="translate(4922.3125 0)"/>
    <use xlink:href="#DejaVuSans-14" transform="translate(4958.390625 0)"/>
    <use xlink:href="#DejaVuSans-13" transform="translate(5022.015625 0)"/>
    <use xlink:href="#DejaVuSans-10" transform="translate(5085.640625 0)"/>
    <use xlink:href="#DejaVuSans-13" transform="translate(5121.71875 0)"/>
    <use xlink:href="#DejaVuSans-16" transform="translate(5185.34375 0)"/>
    <use xlink:href="#DejaVuSans-11" transform="translate(5248.96875 0)"/>
    <use xlink:href="#DejaVuSans-3" transform="translate(5280.75 0)"/>
    <use xlink:href="#DejaVuSans-28" transform="translate(5312.53125 0)"/>
    <use xlink:href="#DejaVuSans-4f" transform="translate(5375.71875 0)"/>
    <use xlink:href="#DejaVuSans-44" transform="translate(5403.5 0)"/>
    <use xlink:href="#DejaVuSans-45" transform="translate(5464.78125 0)"/>
    <use xlink:href="#DejaVuSans-52" transform="translate(5528.265625 0)"/>
    <use xlink:href="#DejaVuSans-55" transform="translate(5589.453125 0)"/>
    <use xlink:href="#DejaVuSans-44" transform="translate(5630.5625 0)"/>
    <use xlink:href="#DejaVuSans-46" transform="translate(5691.84375 0)"/>
    <use xlink:href="#DejaVuSans-4c" transform="translate(5746.828125 0)"/>
    <use xlink:href="#DejaVuSans-b5" transform="translate(5774.609375 0)"/>
    <use xlink:href="#DejaVuSans-51" transform="translate(5835.796875 0)"/>
    <use xlink:href="#DejaVuSans-1d" transform="translate(5899.171875 0)"/>
    <use xlink:href="#DejaVuSans-3" transform="translate(5932.859375 0)"/>
    <use xlink:href="#DejaVuSans-26" transform="translate(5964.640625 0)"/>
    <use xlink:href="#DejaVuSans-52" transform="translate(6034.46875 0)"/>
    <use xlink:href="#DejaVuSans-4f" transform="translate(6095.65625 0)"/>
    <use xlink:href="#DejaVuSans-52" transform="translate(6123.4375 0)"/>
    <use xlink:href="#DejaVuSans-56" transform="translate(6184.625 0)"/>
    <use xlink:href="#DejaVuSans-56" transform="translate(6236.71875 0)"/>
    <use xlink:href="#DejaVuSans-58" transform="translate(6288.8125 0)"/>
    <use xlink:href="#DejaVuSans-56" transform="translate(6352.1875 0)"/>
    <use xlink:href="#DejaVuSans-3" transform="translate(6404.28125 0)"/>
    <use xlink:href="#DejaVuSans-2f" transform="translate(6436.0625 0)"/>
    <use xlink:href="#DejaVuSans-44" transform="translate(6491.78125 0)"/>
    <use xlink:href="#DejaVuSans-45" transform="translate(6553.0625 0)"/>
    <use xlink:href="#DejaVuSans-11" transform="translate(6616.546875 0)"/>
   </g>
  </g>
 </g>
 <defs>
  <clipPath id="pd5db1329c7">
   <rect x="32.92" y="25.44" width="568.28" height="236.04"/>
  </clipPath>
 </defs>
</svg>
