<?xml version="1.0" encoding="utf-8" standalone="no"?>
<!DOCTYPE svg PUBLIC "-//W3C//DTD SVG 1.1//EN"
  "http://www.w3.org/Graphics/SVG/1.1/DTD/svg11.dtd">
<svg xmlns:xlink="http://www.w3.org/1999/xlink" width="720pt" height="324pt" viewBox="0 0 720 324" xmlns="http://www.w3.org/2000/svg" version="1.1">
 <metadata>
  <rdf:RDF xmlns:dc="http://purl.org/dc/elements/1.1/" xmlns:cc="http://creativecommons.org/ns#" xmlns:rdf="http://www.w3.org/1999/02/22-rdf-syntax-ns#">
   <cc:Work>
    <dc:type rdf:resource="http://purl.org/dc/dcmitype/StillImage"/>
    <dc:date>2026-10-04T21:25:28.091532</dc:date>
    <dc:format>image/svg+xml</dc:format>
    <dc:creator>
     <cc:Agent>
      <dc:title>Matplotlib v3.11.2, https://matplotlib.org/</dc:title>
     </cc:Agent>
    </dc:creator>
   </cc:Work>
  </rdf:RDF>
 </metadata>
 <defs>
  <style type="text/css">*{stroke-linejoin: round; stroke-linecap: butt}</style>
 </defs>
 <g id="figure_1">
  <g id="patch_1">
   <path d="M 0 324 
L 720 324 
L 720 0 
L 0 0 
z
" style="fill: #ffffff"/>
  </g>
  <g id="axes_1">
   <g id="patch_2">
    <path d="M 36.781875 288.74 
L 704.181208 288.74 
L 704.181208 25.44 
L 36.781875 25.44 
z
" style="fill: #ffffff"/>
   </g>
   <g id="matplotlib.axis_1">
    <g id="xtick_1">
     <g id="line2d_1"/>
     <g id="text_1">
      <!-- 2017 -->
      <g style="fill: #52514e" transform="translate(59.004833 298.318125) scale(0.08 -0.08)">
       <defs>
        <path id="DejaVuSans-15" d="M 1228 531 
L 3431 531 
L 3431 0 
L 469 0 
L 469 531 
Q 828 903 1448 1529 
Q 2069 2156 2228 2338 
Q 2531 2678 2651 2914 
Q 2772 3150 2772 3378 
Q 2772 3750 2511 3984 
Q 2250 4219 1831 4219 
Q 1534 4219 1204 4116 
Q 875 4013 500 3803 
L 500 4441 
Q 881 4594 1212 4672 
Q 1544 4750 1819 4750 
Q 2544 4750 2975 4387 
Q 3406 4025 3406 3419 
Q 3406 3131 3298 2873 
Q 3191 2616 2906 2266 
Q 2828 2175 2409 1742 
Q 1991 1309 1228 531 
z
" transform="scale(0.015625)"/>
        <path id="DejaVuSans-13" d="M 2034 4250 
Q 1547 4250 1301 3770 
Q 1056 3291 1056 2328 
Q 1056 1369 1301 889 
Q 1547 409 2034 409 
Q 2525 409 2770 889 
Q 3016 1369 3016 2328 
Q 3016 3291 2770 3770 
Q 2525 4250 2034 4250 
z
M 2034 4750 
Q 2819 4750 3233 4129 
Q 3647 3509 3647 2328 
Q 3647 1150 3233 529 
Q 2819 -91 2034 -91 
Q 1250 -91 836 529 
Q 422 1150 422 2328 
Q 422 3509 836 4129 
Q 1250 4750 2034 4750 
z
" transform="scale(0.015625)"/>
        <path id="DejaVuSans-14" d="M 794 531 
L 1825 531 
L 1825 4091 
L 703 3866 
L 703 4441 
L 1819 4666 
L 2450 4666 
L 2450 531 
L 3481 531 
L 3481 0 
L 794 0 
L 794 531 
z
" transform="scale(0.015625)"/>
        <path id="DejaVuSans-1a" d="M 525 4666 
L 3525 4666 
L 3525 4397 
L 1831 0 
L 1172 0 
L 2766 4134 
L 525 4134 
L 525 4666 
z
" transform="scale(0.015625)"/>
       </defs>
       <use xlink:href="#DejaVuSans-15"/>
       <use xlink:href="#DejaVuSans-13" transform="translate(63.625 0)"/>
       <use xlink:href="#DejaVuSans-14" transform="translate(127.25 0)"/>
       <use xlink:href="#DejaVuSans-1a" transform="translate(190.875 0)"/>
      </g>
     </g>
    </g>
    <g id="xtick_2">
     <g id="line2d_2"/>
     <g id="text_2">
      <!-- 2018 -->
      <g style="fill: #52514e" transform="translate(121.864678 298.318125) scale(0.08 -0.08)">
       <defs>
        <path id="DejaVuSans-1b" d="M 2034 2216 
Q 1584 2216 1326 1975 
Q 1069 1734 1069 1313 
Q 1069 891 1326 650 
Q 1584 409 2034 409 
Q 2484 409 2743 651 
Q 3003 894 3003 1313 
Q 3003 1734 2745 1975 
Q 2488 2216 2034 2216 
z
M 1403 2484 
Q 997 2584 770 2862 
Q 544 3141 544 3541 
Q 544 4100 942 4425 
Q 1341 4750 2034 4750 
Q 2731 4750 3128 4425 
Q 3525 4100 3525 3541 
Q 3525 3141 3298 2862 
Q 3072 2584 2669 2484 
Q 3125 2378 3379 2068 
Q 3634 1759 3634 1313 
Q 3634 634 3220 271 
Q 2806 -91 2034 -91 
Q 1263 -91 848 271 
Q 434 634 434 1313 
Q 434 1759 690 2068 
Q 947 2378 1403 2484 
z
M 1172 3481 
Q 1172 3119 1398 2916 
Q 1625 2713 2034 2713 
Q 2441 2713 2670 2916 
Q 2900 3119 2900 3481 
Q 2900 3844 2670 4047 
Q 2441 4250 2034 4250 
Q 1625 4250 1398 4047 
Q 1172 3844 1172 3481 
z
" transform="scale(0.015625)"/>
       </defs>
       <use xlink:href="#DejaVuSans-15"/>
       <use xlink:href="#DejaVuSans-13" transform="translate(63.625 0)"/>
       <use xlink:href="#DejaVuSans-14" transform="translate(127.25 0)"/>
       <use xlink:href="#DejaVuSans-1b" transform="translate(190.875 0)"/>
      </g>
     </g>
    </g>
    <g id="xtick_3">
     <g id="line2d_3"/>
     <g id="text_3">
      <!-- 2019 -->
      <g style="fill: #52514e" transform="translate(184.724523 298.318125) scale(0.08 -0.08)">
       <defs>
        <path id="DejaVuSans-1c" d="M 703 97 
L 703 672 
Q 941 559 1184 500 
Q 1428 441 1663 441 
Q 2288 441 2617 861 
Q 2947 1281 2994 2138 
Q 2813 1869 2534 1725 
Q 2256 1581 1919 1581 
Q 1219 1581 811 2004 
Q 403 2428 403 3163 
Q 403 3881 828 4315 
Q 1253 4750 1959 4750 
Q 2769 4750 3195 4129 
Q 3622 3509 3622 2328 
Q 3622 1225 3098 567 
Q 2575 -91 1691 -91 
Q 1453 -91 1209 -44 
Q 966 3 703 97 
z
M 1959 2075 
Q 2384 2075 2632 2365 
Q 2881 2656 2881 3163 
Q 2881 3666 2632 3958 
Q 2384 4250 1959 4250 
Q 1534 4250 1286 3958 
Q 1038 3666 1038 3163 
Q 1038 2656 1286 2365 
Q 1534 2075 1959 2075 
z
" transform="scale(0.015625)"/>
       </defs>
       <use xlink:href="#DejaVuSans-15"/>
       <use xlink:href="#DejaVuSans-13" transform="translate(63.625 0)"/>
       <use xlink:href="#DejaVuSans-14" transform="translate(127.25 0)"/>
       <use xlink:href="#DejaVuSans-1c" transform="translate(190.875 0)"/>
      </g>
     </g>
    </g>
    <g id="xtick_4">
     <g id="line2d_4"/>
     <g id="text_4">
      <!-- 2020 -->
      <g style="fill: #52514e" transform="translate(247.584368 298.318125) scale(0.08 -0.08)">
       <use xlink:href="#DejaVuSans-15"/>
       <use xlink:href="#DejaVuSans-13" transform="translate(63.625 0)"/>
       <use xlink:href="#DejaVuSans-15" transform="translate(127.25 0)"/>
       <use xlink:href="#DejaVuSans-13" transform="translate(190.875 0)"/>
      </g>
     </g>
    </g>
    <g id="xtick_5">
     <g id="line2d_5"/>
     <g id="text_5">
      <!-- 2021 -->
      <g style="fill: #52514e" transform="translate(310.616431 298.318125) scale(0.08 -0.08)">
       <use xlink:href="#DejaVuSans-15"/>
       <use xlink:href="#DejaVuSans-13" transform="translate(63.625 0)"/>
       <use xlink:href="#DejaVuSans-15" transform="translate(127.25 0)"/>
       <use xlink:href="#DejaVuSans-14" transform="translate(190.875 0)"/>
      </g>
     </g>
    </g>
    <g id="xtick_6">
     <g id="line2d_6"/>
     <g id="text_6">
      <!-- 2022 -->
      <g style="fill: #52514e" transform="translate(373.476276 298.318125) scale(0.08 -0.08)">
       <use xlink:href="#DejaVuSans-15"/>
       <use xlink:href="#DejaVuSans-13" transform="translate(63.625 0)"/>
       <use xlink:href="#DejaVuSans-15" transform="translate(127.25 0)"/>
       <use xlink:href="#DejaVuSans-15" transform="translate(190.875 0)"/>
      </g>
     </g>
    </g>
    <g id="xtick_7">
     <g id="line2d_7"/>
     <g id="text_7">
      <!-- 2023 -->
      <g style="fill: #52514e" transform="translate(436.336121 298.318125) scale(0.08 -0.08)">
       <defs>
        <path id="DejaVuSans-16" d="M 2597 2516 
Q 3050 2419 3304 2112 
Q 3559 1806 3559 1356 
Q 3559 666 3084 287 
Q 2609 -91 1734 -91 
Q 1441 -91 1130 -33 
Q 819 25 488 141 
L 488 750 
Q 750 597 1062 519 
Q 1375 441 1716 441 
Q 2309 441 2620 675 
Q 2931 909 2931 1356 
Q 2931 1769 2642 2001 
Q 2353 2234 1838 2234 
L 1294 2234 
L 1294 2753 
L 1863 2753 
Q 2328 2753 2575 2939 
Q 2822 3125 2822 3475 
Q 2822 3834 2567 4026 
Q 2313 4219 1838 4219 
Q 1578 4219 1281 4162 
Q 984 4106 628 3988 
L 628 4550 
Q 988 4650 1302 4700 
Q 1616 4750 1894 4750 
Q 2613 4750 3031 4423 
Q 3450 4097 3450 3541 
Q 3450 3153 3228 2886 
Q 3006 2619 2597 2516 
z
" transform="scale(0.015625)"/>
       </defs>
       <use xlink:href="#DejaVuSans-15"/>
       <use xlink:href="#DejaVuSans-13" transform="translate(63.625 0)"/>
       <use xlink:href="#DejaVuSans-15" transform="translate(127.25 0)"/>
       <use xlink:href="#DejaVuSans-16" transform="translate(190.875 0)"/>
      </g>
     </g>
    </g>
    <g id="xtick_8">
     <g id="line2d_8"/>
     <g id="text_8">
      <!-- 2024 -->
      <g style="fill: #52514e" transform="translate(499.195966 298.318125) scale(0.08 -0.08)">
       <defs>
        <path id="DejaVuSans-17" d="M 2419 4116 
L 825 1625 
L 2419 1625 
L 2419 4116 
z
M 2253 4666 
L 3047 4666 
L 3047 1625 
L 3713 1625 
L 3713 1100 
L 3047 1100 
L 3047 0 
L 2419 0 
L 2419 1100 
L 313 1100 
L 313 1709 
L 2253 4666 
z
" transform="scale(0.015625)"/>
       </defs>
       <use xlink:href="#DejaVuSans-15"/>
       <use xlink:href="#DejaVuSans-13" transform="translate(63.625 0)"/>
       <use xlink:href="#DejaVuSans-15" transform="translate(127.25 0)"/>
       <use xlink:href="#DejaVuSans-17" transform="translate(190.875 0)"/>
      </g>
     </g>
    </g>
    <g id="xtick_9">
     <g id="line2d_9"/>
     <g id="text_9">
      <!-- 2025 -->
      <g style="fill: #52514e" transform="translate(562.228029 298.318125) scale(0.08 -0.08)">
       <defs>
        <path id="DejaVuSans-18" d="M 691 4666 
L 3169 4666 
L 3169 4134 
L 1269 4134 
L 1269 2991 
Q 1406 3038 1543 3061 
Q 1681 3084 1819 3084 
Q 2600 3084 3056 2656 
Q 3513 2228 3513 1497 
Q 3513 744 3044 326 
Q 2575 -91 1722 -91 
Q 1428 -91 1123 -41 
Q 819 9 494 109 
L 494 744 
Q 775 591 1075 516 
Q 1375 441 1709 441 
Q 2250 441 2565 725 
Q 2881 1009 2881 1497 
Q 2881 1984 2565 2268 
Q 2250 2553 1709 2553 
Q 1456 2553 1204 2497 
Q 953 2441 691 2322 
L 691 4666 
z
" transform="scale(0.015625)"/>
       </defs>
       <use xlink:href="#DejaVuSans-15"/>
       <use xlink:href="#DejaVuSans-13" transform="translate(63.625 0)"/>
       <use xlink:href="#DejaVuSans-15" transform="translate(127.25 0)"/>
       <use xlink:href="#DejaVuSans-18" transform="translate(190.875 0)"/>
      </g>
     </g>
    </g>
    <g id="xtick_10">
     <g id="line2d_10"/>
     <g id="text_10">
      <!-- 2026 -->
      <g style="fill: #52514e" transform="translate(625.087874 298.318125) scale(0.08 -0.08)">
       <defs>
        <path id="DejaVuSans-19" d="M 2113 2584 
Q 1688 2584 1439 2293 
Q 1191 2003 1191 1497 
Q 1191 994 1439 701 
Q 1688 409 2113 409 
Q 2538 409 2786 701 
Q 3034 994 3034 1497 
Q 3034 2003 2786 2293 
Q 2538 2584 2113 2584 
z
M 3366 4563 
L 3366 3988 
Q 3128 4100 2886 4159 
Q 2644 4219 2406 4219 
Q 1781 4219 1451 3797 
Q 1122 3375 1075 2522 
Q 1259 2794 1537 2939 
Q 1816 3084 2150 3084 
Q 2853 3084 3261 2657 
Q 3669 2231 3669 1497 
Q 3669 778 3244 343 
Q 2819 -91 2113 -91 
Q 1303 -91 875 529 
Q 447 1150 447 2328 
Q 447 3434 972 4092 
Q 1497 4750 2381 4750 
Q 2619 4750 2861 4703 
Q 3103 4656 3366 4563 
z
" transform="scale(0.015625)"/>
       </defs>
       <use xlink:href="#DejaVuSans-15"/>
       <use xlink:href="#DejaVuSans-13" transform="translate(63.625 0)"/>
       <use xlink:href="#DejaVuSans-15" transform="translate(127.25 0)"/>
       <use xlink:href="#DejaVuSans-19" transform="translate(190.875 0)"/>
      </g>
     </g>
    </g>
    <g id="xtick_11">
     <g id="line2d_11"/>
     <g id="text_11">
      <!-- 2027 -->
      <g style="fill: #52514e" transform="translate(687.947719 298.318125) scale(0.08 -0.08)">
       <use xlink:href="#DejaVuSans-15"/>
       <use xlink:href="#DejaVuSans-13" transform="translate(63.625 0)"/>
       <use xlink:href="#DejaVuSans-15" transform="translate(127.25 0)"/>
       <use xlink:href="#DejaVuSans-1a" transform="translate(190.875 0)"/>
      </g>
     </g>
    </g>
   </g>
   <g id="matplotlib.axis_2">
    <g id="ytick_1">
     <g id="line2d_12">
      <path d="M 36.781875 288.74 
L 704.181208 288.74 
" clip-path="url(#p4fbefccacf)" style="fill: none; stroke: #e1e0d9; stroke-width: 0.6; stroke-linecap: square"/>
     </g>
     <g id="line2d_13"/>
     <g id="text_12">
      <!-- 0 -->
      <g style="fill: #52514e" transform="translate(28.191875 291.779063) scale(0.08 -0.08)">
       <use xlink:href="#DejaVuSans-13"/>
      </g>
     </g>
    </g>
    <g id="ytick_2">
     <g id="line2d_14">
      <path d="M 36.781875 239.504724 
L 704.181208 239.504724 
" clip-path="url(#p4fbefccacf)" style="fill: none; stroke: #e1e0d9; stroke-width: 0.6; stroke-linecap: square"/>
     </g>
     <g id="line2d_15"/>
     <g id="text_13">
      <!-- 5 -->
      <g style="fill: #52514e" transform="translate(28.191875 242.543787) scale(0.08 -0.08)">
       <use xlink:href="#DejaVuSans-18"/>
      </g>
     </g>
    </g>
    <g id="ytick_3">
     <g id="line2d_16">
      <path d="M 36.781875 190.269449 
L 704.181208 190.269449 
" clip-path="url(#p4fbefccacf)" style="fill: none; stroke: #e1e0d9; stroke-width: 0.6; stroke-linecap: square"/>
     </g>
     <g id="line2d_17"/>
     <g id="text_14">
      <!-- 10 -->
      <g style="fill: #52514e" transform="translate(23.101875 193.308511) scale(0.08 -0.08)">
       <use xlink:href="#DejaVuSans-14"/>
       <use xlink:href="#DejaVuSans-13" transform="translate(63.625 0)"/>
      </g>
     </g>
    </g>
    <g id="ytick_4">
     <g id="line2d_18">
      <path d="M 36.781875 141.034173 
L 704.181208 141.034173 
" clip-path="url(#p4fbefccacf)" style="fill: none; stroke: #e1e0d9; stroke-width: 0.6; stroke-linecap: square"/>
     </g>
     <g id="line2d_19"/>
     <g id="text_15">
      <!-- 15 -->
      <g style="fill: #52514e" transform="translate(23.101875 144.073236) scale(0.08 -0.08)">
       <use xlink:href="#DejaVuSans-14"/>
       <use xlink:href="#DejaVuSans-18" transform="translate(63.625 0)"/>
      </g>
     </g>
    </g>
    <g id="ytick_5">
     <g id="line2d_20">
      <path d="M 36.781875 91.798898 
L 704.181208 91.798898 
" clip-path="url(#p4fbefccacf)" style="fill: none; stroke: #e1e0d9; stroke-width: 0.6; stroke-linecap: square"/>
     </g>
     <g id="line2d_21"/>
     <g id="text_16">
      <!-- 20 -->
      <g style="fill: #52514e" transform="translate(23.101875 94.83796) scale(0.08 -0.08)">
       <use xlink:href="#DejaVuSans-15"/>
       <use xlink:href="#DejaVuSans-13" transform="translate(63.625 0)"/>
      </g>
     </g>
    </g>
    <g id="ytick_6">
     <g id="line2d_22">
      <path d="M 36.781875 42.563622 
L 704.181208 42.563622 
" clip-path="url(#p4fbefccacf)" style="fill: none; stroke: #e1e0d9; stroke-width: 0.6; stroke-linecap: square"/>
     </g>
     <g id="line2d_23"/>
     <g id="text_17">
      <!-- 25 -->
      <g style="fill: #52514e" transform="translate(23.101875 45.602685) scale(0.08 -0.08)">
       <use xlink:href="#DejaVuSans-15"/>
       <use xlink:href="#DejaVuSans-18" transform="translate(63.625 0)"/>
      </g>
     </g>
    </g>
    <g id="text_18">
     <!-- % mensual -->
     <g style="fill: #52514e" transform="translate(17.18 179.235625) rotate(-90) scale(0.08 -0.08)">
      <defs>
       <path id="DejaVuSans-8" d="M 4653 2053 
Q 4381 2053 4226 1822 
Q 4072 1591 4072 1178 
Q 4072 772 4226 539 
Q 4381 306 4653 306 
Q 4919 306 5073 539 
Q 5228 772 5228 1178 
Q 5228 1588 5073 1820 
Q 4919 2053 4653 2053 
z
M 4653 2450 
Q 5147 2450 5437 2106 
Q 5728 1763 5728 1178 
Q 5728 594 5436 251 
Q 5144 -91 4653 -91 
Q 4153 -91 3862 251 
Q 3572 594 3572 1178 
Q 3572 1766 3864 2108 
Q 4156 2450 4653 2450 
z
M 1428 4353 
Q 1159 4353 1004 4120 
Q 850 3888 850 3481 
Q 850 3069 1003 2837 
Q 1156 2606 1428 2606 
Q 1700 2606 1854 2837 
Q 2009 3069 2009 3481 
Q 2009 3884 1853 4118 
Q 1697 4353 1428 4353 
z
M 4250 4750 
L 4750 4750 
L 1831 -91 
L 1331 -91 
L 4250 4750 
z
M 1428 4750 
Q 1922 4750 2215 4408 
Q 2509 4066 2509 3481 
Q 2509 2891 2217 2550 
Q 1925 2209 1428 2209 
Q 931 2209 642 2551 
Q 353 2894 353 3481 
Q 353 4063 643 4406 
Q 934 4750 1428 4750 
z
" transform="scale(0.015625)"/>
       <path id="DejaVuSans-3" transform="scale(0.015625)"/>
       <path id="DejaVuSans-50" d="M 3328 2828 
Q 3544 3216 3844 3400 
Q 4144 3584 4550 3584 
Q 5097 3584 5394 3201 
Q 5691 2819 5691 2113 
L 5691 0 
L 5113 0 
L 5113 2094 
Q 5113 2597 4934 2840 
Q 4756 3084 4391 3084 
Q 3944 3084 3684 2787 
Q 3425 2491 3425 1978 
L 3425 0 
L 2847 0 
L 2847 2094 
Q 2847 2600 2669 2842 
Q 2491 3084 2119 3084 
Q 1678 3084 1418 2786 
Q 1159 2488 1159 1978 
L 1159 0 
L 581 0 
L 581 3500 
L 1159 3500 
L 1159 2956 
Q 1356 3278 1631 3431 
Q 1906 3584 2284 3584 
Q 2666 3584 2933 3390 
Q 3200 3197 3328 2828 
z
" transform="scale(0.015625)"/>
       <path id="DejaVuSans-48" d="M 3597 1894 
L 3597 1613 
L 953 1613 
Q 991 1019 1311 708 
Q 1631 397 2203 397 
Q 2534 397 2845 478 
Q 3156 559 3463 722 
L 3463 178 
Q 3153 47 2828 -22 
Q 2503 -91 2169 -91 
Q 1331 -91 842 396 
Q 353 884 353 1716 
Q 353 2575 817 3079 
Q 1281 3584 2069 3584 
Q 2775 3584 3186 3129 
Q 3597 2675 3597 1894 
z
M 3022 2063 
Q 3016 2534 2758 2815 
Q 2500 3097 2075 3097 
Q 1594 3097 1305 2825 
Q 1016 2553 972 2059 
L 3022 2063 
z
" transform="scale(0.015625)"/>
       <path id="DejaVuSans-51" d="M 3513 2113 
L 3513 0 
L 2938 0 
L 2938 2094 
Q 2938 2591 2744 2837 
Q 2550 3084 2163 3084 
Q 1697 3084 1428 2787 
Q 1159 2491 1159 1978 
L 1159 0 
L 581 0 
L 581 3500 
L 1159 3500 
L 1159 2956 
Q 1366 3272 1645 3428 
Q 1925 3584 2291 3584 
Q 2894 3584 3203 3211 
Q 3513 2838 3513 2113 
z
" transform="scale(0.015625)"/>
       <path id="DejaVuSans-56" d="M 2834 3397 
L 2834 2853 
Q 2591 2978 2328 3040 
Q 2066 3103 1784 3103 
Q 1356 3103 1142 2972 
Q 928 2841 928 2578 
Q 928 2378 1081 2264 
Q 1234 2150 1697 2047 
L 1894 2003 
Q 2506 1872 2764 1633 
Q 3022 1394 3022 966 
Q 3022 478 2636 193 
Q 2250 -91 1575 -91 
Q 1294 -91 989 -36 
Q 684 19 347 128 
L 347 722 
Q 666 556 975 473 
Q 1284 391 1588 391 
Q 1994 391 2212 530 
Q 2431 669 2431 922 
Q 2431 1156 2273 1281 
Q 2116 1406 1581 1522 
L 1381 1569 
Q 847 1681 609 1914 
Q 372 2147 372 2553 
Q 372 3047 722 3315 
Q 1072 3584 1716 3584 
Q 2034 3584 2315 3537 
Q 2597 3491 2834 3397 
z
" transform="scale(0.015625)"/>
       <path id="DejaVuSans-58" d="M 544 1381 
L 544 3500 
L 1119 3500 
L 1119 1403 
Q 1119 906 1312 657 
Q 1506 409 1894 409 
Q 2359 409 2629 706 
Q 2900 1003 2900 1516 
L 2900 3500 
L 3475 3500 
L 3475 0 
L 2900 0 
L 2900 538 
Q 2691 219 2414 64 
Q 2138 -91 1772 -91 
Q 1169 -91 856 284 
Q 544 659 544 1381 
z
M 1991 3584 
L 1991 3584 
z
" transform="scale(0.015625)"/>
       <path id="DejaVuSans-44" d="M 2194 1759 
Q 1497 1759 1228 1600 
Q 959 1441 959 1056 
Q 959 750 1161 570 
Q 1363 391 1709 391 
Q 2188 391 2477 730 
Q 2766 1069 2766 1631 
L 2766 1759 
L 2194 1759 
z
M 3341 1997 
L 3341 0 
L 2766 0 
L 2766 531 
Q 2569 213 2275 61 
Q 1981 -91 1556 -91 
Q 1019 -91 701 211 
Q 384 513 384 1019 
Q 384 1609 779 1909 
Q 1175 2209 1959 2209 
L 2766 2209 
L 2766 2266 
Q 2766 2663 2505 2880 
Q 2244 3097 1772 3097 
Q 1472 3097 1187 3025 
Q 903 2953 641 2809 
L 641 3341 
Q 956 3463 1253 3523 
Q 1550 3584 1831 3584 
Q 2591 3584 2966 3190 
Q 3341 2797 3341 1997 
z
" transform="scale(0.015625)"/>
       <path id="DejaVuSans-4f" d="M 603 4863 
L 1178 4863 
L 1178 0 
L 603 0 
L 603 4863 
z
" transform="scale(0.015625)"/>
      </defs>
      <use xlink:href="#DejaVuSans-8"/>
      <use xlink:href="#DejaVuSans-3" transform="translate(95.015625 0)"/>
      <use xlink:href="#DejaVuSans-50" transform="translate(126.796875 0)"/>
      <use xlink:href="#DejaVuSans-48" transform="translate(224.203125 0)"/>
      <use xlink:href="#DejaVuSans-51" transform="translate(285.734375 0)"/>
      <use xlink:href="#DejaVuSans-56" transform="translate(349.109375 0)"/>
      <use xlink:href="#DejaVuSans-58" transform="translate(401.203125 0)"/>
      <use xlink:href="#DejaVuSans-44" transform="translate(464.578125 0)"/>
      <use xlink:href="#DejaVuSans-4f" transform="translate(525.859375 0)"/>
     </g>
    </g>
   </g>
   <g id="patch_3">
    <path d="M 67.118208 288.74 
L 71.251458 288.74 
L 71.251458 273.123555 
L 67.118208 273.123555 
z
" clip-path="url(#p4fbefccacf)" style="fill: #2a78d6"/>
   </g>
   <g id="patch_4">
    <path d="M 72.45699 288.74 
L 76.59024 288.74 
L 76.59024 268.38401 
L 72.45699 268.38401 
z
" clip-path="url(#p4fbefccacf)" style="fill: #2a78d6"/>
   </g>
   <g id="patch_5">
    <path d="M 77.279115 288.74 
L 81.412365 288.74 
L 81.412365 265.361223 
L 77.279115 265.361223 
z
" clip-path="url(#p4fbefccacf)" style="fill: #2a78d6"/>
   </g>
   <g id="patch_6">
    <path d="M 82.617896 288.74 
L 86.751146 288.74 
L 86.751146 262.587894 
L 82.617896 262.587894 
z
" clip-path="url(#p4fbefccacf)" style="fill: #2a78d6"/>
   </g>
   <g id="patch_7">
    <path d="M 87.784459 288.74 
L 91.917709 288.74 
L 91.917709 274.611935 
L 87.784459 274.611935 
z
" clip-path="url(#p4fbefccacf)" style="fill: #2a78d6"/>
   </g>
   <g id="patch_8">
    <path d="M 93.12324 288.74 
L 97.25649 288.74 
L 97.25649 277.001587 
L 93.12324 277.001587 
z
" clip-path="url(#p4fbefccacf)" style="fill: #2a78d6"/>
   </g>
   <g id="patch_9">
    <path d="M 98.289803 288.74 
L 102.423053 288.74 
L 102.423053 271.682278 
L 98.289803 271.682278 
z
" clip-path="url(#p4fbefccacf)" style="fill: #2a78d6"/>
   </g>
   <g id="patch_10">
    <path d="M 103.628584 288.74 
L 107.761834 288.74 
L 107.761834 274.92204 
L 103.628584 274.92204 
z
" clip-path="url(#p4fbefccacf)" style="fill: #2a78d6"/>
   </g>
   <g id="patch_11">
    <path d="M 108.967365 288.74 
L 113.100615 288.74 
L 113.100615 270.04985 
L 108.967365 270.04985 
z
" clip-path="url(#p4fbefccacf)" style="fill: #2a78d6"/>
   </g>
   <g id="patch_12">
    <path d="M 114.133928 288.74 
L 118.267178 288.74 
L 118.267178 273.824344 
L 114.133928 273.824344 
z
" clip-path="url(#p4fbefccacf)" style="fill: #2a78d6"/>
   </g>
   <g id="patch_13">
    <path d="M 119.472709 288.74 
L 123.605959 288.74 
L 123.605959 275.199482 
L 119.472709 275.199482 
z
" clip-path="url(#p4fbefccacf)" style="fill: #2a78d6"/>
   </g>
   <g id="patch_14">
    <path d="M 124.639272 288.74 
L 128.772522 288.74 
L 128.772522 257.800809 
L 124.639272 257.800809 
z
" clip-path="url(#p4fbefccacf)" style="fill: #2a78d6"/>
   </g>
   <g id="patch_15">
    <path d="M 129.978053 288.74 
L 134.111303 288.74 
L 134.111303 271.435242 
L 129.978053 271.435242 
z
" clip-path="url(#p4fbefccacf)" style="fill: #2a78d6"/>
   </g>
   <g id="patch_16">
    <path d="M 135.316834 288.74 
L 139.450085 288.74 
L 139.450085 264.919638 
L 135.316834 264.919638 
z
" clip-path="url(#p4fbefccacf)" style="fill: #2a78d6"/>
   </g>
   <g id="patch_17">
    <path d="M 140.13896 288.74 
L 144.27221 288.74 
L 144.27221 265.687428 
L 140.13896 265.687428 
z
" clip-path="url(#p4fbefccacf)" style="fill: #2a78d6"/>
   </g>
   <g id="patch_18">
    <path d="M 145.477741 288.74 
L 149.610991 288.74 
L 149.610991 261.768597 
L 145.477741 261.768597 
z
" clip-path="url(#p4fbefccacf)" style="fill: #2a78d6"/>
   </g>
   <g id="patch_19">
    <path d="M 150.644303 288.74 
L 154.777554 288.74 
L 154.777554 268.30367 
L 150.644303 268.30367 
z
" clip-path="url(#p4fbefccacf)" style="fill: #2a78d6"/>
   </g>
   <g id="patch_20">
    <path d="M 155.983085 288.74 
L 160.116335 288.74 
L 160.116335 251.944745 
L 155.983085 251.944745 
z
" clip-path="url(#p4fbefccacf)" style="fill: #2a78d6"/>
   </g>
   <g id="patch_21">
    <path d="M 161.149647 288.74 
L 165.282897 288.74 
L 165.282897 258.198246 
L 161.149647 258.198246 
z
" clip-path="url(#p4fbefccacf)" style="fill: #2a78d6"/>
   </g>
   <g id="patch_22">
    <path d="M 166.488429 288.74 
L 170.621679 288.74 
L 170.621679 250.440481 
L 166.488429 250.440481 
z
" clip-path="url(#p4fbefccacf)" style="fill: #2a78d6"/>
   </g>
   <g id="patch_23">
    <path d="M 171.82721 288.74 
L 175.96046 288.74 
L 175.96046 224.396524 
L 171.82721 224.396524 
z
" clip-path="url(#p4fbefccacf)" style="fill: #2a78d6"/>
   </g>
   <g id="patch_24">
    <path d="M 176.993773 288.74 
L 181.127023 288.74 
L 181.127023 235.648547 
L 176.993773 235.648547 
z
" clip-path="url(#p4fbefccacf)" style="fill: #2a78d6"/>
   </g>
   <g id="patch_25">
    <path d="M 182.332554 288.74 
L 186.465804 288.74 
L 186.465804 257.688641 
L 182.332554 257.688641 
z
" clip-path="url(#p4fbefccacf)" style="fill: #2a78d6"/>
   </g>
   <g id="patch_26">
    <path d="M 187.499117 288.74 
L 191.632367 288.74 
L 191.632367 263.434807 
L 187.499117 263.434807 
z
" clip-path="url(#p4fbefccacf)" style="fill: #2a78d6"/>
   </g>
   <g id="patch_27">
    <path d="M 192.837898 288.74 
L 196.971148 288.74 
L 196.971148 260.122086 
L 192.837898 260.122086 
z
" clip-path="url(#p4fbefccacf)" style="fill: #2a78d6"/>
   </g>
   <g id="patch_28">
    <path d="M 198.176679 288.74 
L 202.309929 288.74 
L 202.309929 251.659711 
L 198.176679 251.659711 
z
" clip-path="url(#p4fbefccacf)" style="fill: #2a78d6"/>
   </g>
   <g id="patch_29">
    <path d="M 202.998804 288.74 
L 207.132054 288.74 
L 207.132054 242.66031 
L 202.998804 242.66031 
z
" clip-path="url(#p4fbefccacf)" style="fill: #2a78d6"/>
   </g>
   <g id="patch_30">
    <path d="M 208.337586 288.74 
L 212.470836 288.74 
L 212.470836 255.260013 
L 208.337586 255.260013 
z
" clip-path="url(#p4fbefccacf)" style="fill: #2a78d6"/>
   </g>
   <g id="patch_31">
    <path d="M 213.504148 288.74 
L 217.637398 288.74 
L 217.637398 258.17848 
L 213.504148 258.17848 
z
" clip-path="url(#p4fbefccacf)" style="fill: #2a78d6"/>
   </g>
   <g id="patch_32">
    <path d="M 218.84293 288.74 
L 222.97618 288.74 
L 222.97618 261.975651 
L 218.84293 261.975651 
z
" clip-path="url(#p4fbefccacf)" style="fill: #2a78d6"/>
   </g>
   <g id="patch_33">
    <path d="M 224.009492 288.74 
L 228.142742 288.74 
L 228.142742 267.097497 
L 224.009492 267.097497 
z
" clip-path="url(#p4fbefccacf)" style="fill: #2a78d6"/>
   </g>
   <g id="patch_34">
    <path d="M 229.348274 288.74 
L 233.481524 288.74 
L 233.481524 249.804884 
L 229.348274 249.804884 
z
" clip-path="url(#p4fbefccacf)" style="fill: #2a78d6"/>
   </g>
   <g id="patch_35">
    <path d="M 234.687055 288.74 
L 238.820305 288.74 
L 238.820305 230.783559 
L 234.687055 230.783559 
z
" clip-path="url(#p4fbefccacf)" style="fill: #2a78d6"/>
   </g>
   <g id="patch_36">
    <path d="M 239.853617 288.74 
L 243.986868 288.74 
L 243.986868 256.3089 
L 239.853617 256.3089 
z
" clip-path="url(#p4fbefccacf)" style="fill: #2a78d6"/>
   </g>
   <g id="patch_37">
    <path d="M 245.192399 288.74 
L 249.325649 288.74 
L 249.325649 246.845337 
L 245.192399 246.845337 
z
" clip-path="url(#p4fbefccacf)" style="fill: #2a78d6"/>
   </g>
   <g id="patch_38">
    <path d="M 250.358961 288.74 
L 254.492211 288.74 
L 254.492211 251.875507 
L 250.358961 251.875507 
z
" clip-path="url(#p4fbefccacf)" style="fill: #2a78d6"/>
   </g>
   <g id="patch_39">
    <path d="M 255.697743 288.74 
L 259.830993 288.74 
L 259.830993 266.55562 
L 255.697743 266.55562 
z
" clip-path="url(#p4fbefccacf)" style="fill: #2a78d6"/>
   </g>
   <g id="patch_40">
    <path d="M 261.036524 288.74 
L 265.169774 288.74 
L 265.169774 268.911681 
L 261.036524 268.911681 
z
" clip-path="url(#p4fbefccacf)" style="fill: #2a78d6"/>
   </g>
   <g id="patch_41">
    <path d="M 266.030868 288.74 
L 270.164118 288.74 
L 270.164118 255.81668 
L 266.030868 255.81668 
z
" clip-path="url(#p4fbefccacf)" style="fill: #2a78d6"/>
   </g>
   <g id="patch_42">
    <path d="M 271.369649 288.74 
L 275.502899 288.74 
L 275.502899 274.003167 
L 271.369649 274.003167 
z
" clip-path="url(#p4fbefccacf)" style="fill: #2a78d6"/>
   </g>
   <g id="patch_43">
    <path d="M 276.536212 288.74 
L 280.669462 288.74 
L 280.669462 273.548591 
L 276.536212 273.548591 
z
" clip-path="url(#p4fbefccacf)" style="fill: #2a78d6"/>
   </g>
   <g id="patch_44">
    <path d="M 281.874993 288.74 
L 286.008243 288.74 
L 286.008243 266.647746 
L 281.874993 266.647746 
z
" clip-path="url(#p4fbefccacf)" style="fill: #2a78d6"/>
   </g>
   <g id="patch_45">
    <path d="M 287.041556 288.74 
L 291.174806 288.74 
L 291.174806 269.693879 
L 287.041556 269.693879 
z
" clip-path="url(#p4fbefccacf)" style="fill: #2a78d6"/>
   </g>
   <g id="patch_46">
    <path d="M 292.380337 288.74 
L 296.513587 288.74 
L 296.513587 262.151865 
L 292.380337 262.151865 
z
" clip-path="url(#p4fbefccacf)" style="fill: #2a78d6"/>
   </g>
   <g id="patch_47">
    <path d="M 297.719118 288.74 
L 301.852369 288.74 
L 301.852369 260.818462 
L 297.719118 260.818462 
z
" clip-path="url(#p4fbefccacf)" style="fill: #2a78d6"/>
   </g>
   <g id="patch_48">
    <path d="M 302.885681 288.74 
L 307.018931 288.74 
L 307.018931 251.705523 
L 302.885681 251.705523 
z
" clip-path="url(#p4fbefccacf)" style="fill: #2a78d6"/>
   </g>
   <g id="patch_49">
    <path d="M 308.224462 288.74 
L 312.357712 288.74 
L 312.357712 257.626211 
L 308.224462 257.626211 
z
" clip-path="url(#p4fbefccacf)" style="fill: #2a78d6"/>
   </g>
   <g id="patch_50">
    <path d="M 313.391025 288.74 
L 317.524275 288.74 
L 317.524275 249.296958 
L 313.391025 249.296958 
z
" clip-path="url(#p4fbefccacf)" style="fill: #2a78d6"/>
   </g>
   <g id="patch_51">
    <path d="M 318.729806 288.74 
L 322.863056 288.74 
L 322.863056 248.868984 
L 318.729806 248.868984 
z
" clip-path="url(#p4fbefccacf)" style="fill: #2a78d6"/>
   </g>
   <g id="patch_52">
    <path d="M 324.068588 288.74 
L 328.201838 288.74 
L 328.201838 253.540405 
L 324.068588 253.540405 
z
" clip-path="url(#p4fbefccacf)" style="fill: #2a78d6"/>
   </g>
   <g id="patch_53">
    <path d="M 328.890713 288.74 
L 333.023963 288.74 
L 333.023963 241.367714 
L 328.890713 241.367714 
z
" clip-path="url(#p4fbefccacf)" style="fill: #2a78d6"/>
   </g>
   <g id="patch_54">
    <path d="M 334.229494 288.74 
L 338.362744 288.74 
L 338.362744 248.561125 
L 334.229494 248.561125 
z
" clip-path="url(#p4fbefccacf)" style="fill: #2a78d6"/>
   </g>
   <g id="patch_55">
    <path d="M 339.396057 288.74 
L 343.529307 288.74 
L 343.529307 256.018452 
L 339.396057 256.018452 
z
" clip-path="url(#p4fbefccacf)" style="fill: #2a78d6"/>
   </g>
   <g id="patch_56">
    <path d="M 344.734838 288.74 
L 348.868088 288.74 
L 348.868088 257.480051 
L 344.734838 257.480051 
z
" clip-path="url(#p4fbefccacf)" style="fill: #2a78d6"/>
   </g>
   <g id="patch_57">
    <path d="M 349.901401 288.74 
L 354.034651 288.74 
L 354.034651 259.228048 
L 349.901401 259.228048 
z
" clip-path="url(#p4fbefccacf)" style="fill: #2a78d6"/>
   </g>
   <g id="patch_58">
    <path d="M 355.240182 288.74 
L 359.373432 288.74 
L 359.373432 264.432676 
L 355.240182 264.432676 
z
" clip-path="url(#p4fbefccacf)" style="fill: #2a78d6"/>
   </g>
   <g id="patch_59">
    <path d="M 360.578963 288.74 
L 364.712213 288.74 
L 364.712213 253.814584 
L 360.578963 253.814584 
z
" clip-path="url(#p4fbefccacf)" style="fill: #2a78d6"/>
   </g>
   <g id="patch_60">
    <path d="M 365.745526 288.74 
L 369.878776 288.74 
L 369.878776 254.115048 
L 365.745526 254.115048 
z
" clip-path="url(#p4fbefccacf)" style="fill: #2a78d6"/>
   </g>
   <g id="patch_61">
    <path d="M 371.084307 288.74 
L 375.217557 288.74 
L 375.217557 263.832223 
L 371.084307 263.832223 
z
" clip-path="url(#p4fbefccacf)" style="fill: #2a78d6"/>
   </g>
   <g id="patch_62">
    <path d="M 376.25087 288.74 
L 380.38412 288.74 
L 380.38412 250.927601 
L 376.25087 250.927601 
z
" clip-path="url(#p4fbefccacf)" style="fill: #2a78d6"/>
   </g>
   <g id="patch_63">
    <path d="M 381.589651 288.74 
L 385.722901 288.74 
L 385.722901 250.575947 
L 381.589651 250.575947 
z
" clip-path="url(#p4fbefccacf)" style="fill: #2a78d6"/>
   </g>
   <g id="patch_64">
    <path d="M 386.928432 288.74 
L 391.061683 288.74 
L 391.061683 242.514323 
L 386.928432 242.514323 
z
" clip-path="url(#p4fbefccacf)" style="fill: #2a78d6"/>
   </g>
   <g id="patch_65">
    <path d="M 391.750558 288.74 
L 395.883808 288.74 
L 395.883808 222.481157 
L 391.750558 222.481157 
z
" clip-path="url(#p4fbefccacf)" style="fill: #2a78d6"/>
   </g>
   <g id="patch_66">
    <path d="M 397.089339 288.74 
L 401.222589 288.74 
L 401.222589 229.191715 
L 397.089339 229.191715 
z
" clip-path="url(#p4fbefccacf)" style="fill: #2a78d6"/>
   </g>
   <g id="patch_67">
    <path d="M 402.255901 288.74 
L 406.389152 288.74 
L 406.389152 239.010126 
L 402.255901 239.010126 
z
" clip-path="url(#p4fbefccacf)" style="fill: #2a78d6"/>
   </g>
   <g id="patch_68">
    <path d="M 407.594683 288.74 
L 411.727933 288.74 
L 411.727933 236.597665 
L 407.594683 236.597665 
z
" clip-path="url(#p4fbefccacf)" style="fill: #2a78d6"/>
   </g>
   <g id="patch_69">
    <path d="M 412.761245 288.74 
L 416.894495 288.74 
L 416.894495 215.810771 
L 412.761245 215.810771 
z
" clip-path="url(#p4fbefccacf)" style="fill: #2a78d6"/>
   </g>
   <g id="patch_70">
    <path d="M 418.100027 288.74 
L 422.233277 288.74 
L 422.233277 220.102722 
L 418.100027 220.102722 
z
" clip-path="url(#p4fbefccacf)" style="fill: #2a78d6"/>
   </g>
   <g id="patch_71">
    <path d="M 423.438808 288.74 
L 427.572058 288.74 
L 427.572058 228.027786 
L 423.438808 228.027786 
z
" clip-path="url(#p4fbefccacf)" style="fill: #2a78d6"/>
   </g>
   <g id="patch_72">
    <path d="M 428.605371 288.74 
L 432.738621 288.74 
L 432.738621 226.237294 
L 428.605371 226.237294 
z
" clip-path="url(#p4fbefccacf)" style="fill: #2a78d6"/>
   </g>
   <g id="patch_73">
    <path d="M 433.944152 288.74 
L 438.077402 288.74 
L 438.077402 240.330429 
L 433.944152 240.330429 
z
" clip-path="url(#p4fbefccacf)" style="fill: #2a78d6"/>
   </g>
   <g id="patch_74">
    <path d="M 439.110715 288.74 
L 443.243965 288.74 
L 443.243965 238.277705 
L 439.110715 238.277705 
z
" clip-path="url(#p4fbefccacf)" style="fill: #2a78d6"/>
   </g>
   <g id="patch_75">
    <path d="M 444.449496 288.74 
L 448.582746 288.74 
L 448.582746 229.383197 
L 444.449496 229.383197 
z
" clip-path="url(#p4fbefccacf)" style="fill: #2a78d6"/>
   </g>
   <g id="patch_76">
    <path d="M 449.788277 288.74 
L 453.921527 288.74 
L 453.921527 223.476459 
L 449.788277 223.476459 
z
" clip-path="url(#p4fbefccacf)" style="fill: #2a78d6"/>
   </g>
   <g id="patch_77">
    <path d="M 454.610402 288.74 
L 458.743652 288.74 
L 458.743652 213.16149 
L 454.610402 213.16149 
z
" clip-path="url(#p4fbefccacf)" style="fill: #2a78d6"/>
   </g>
   <g id="patch_78">
    <path d="M 459.949184 288.74 
L 464.082434 288.74 
L 464.082434 205.99825 
L 459.949184 205.99825 
z
" clip-path="url(#p4fbefccacf)" style="fill: #2a78d6"/>
   </g>
   <g id="patch_79">
    <path d="M 465.115746 288.74 
L 469.248996 288.74 
L 469.248996 212.201273 
L 465.115746 212.201273 
z
" clip-path="url(#p4fbefccacf)" style="fill: #2a78d6"/>
   </g>
   <g id="patch_80">
    <path d="M 470.454528 288.74 
L 474.587778 288.74 
L 474.587778 230.14183 
L 470.454528 230.14183 
z
" clip-path="url(#p4fbefccacf)" style="fill: #2a78d6"/>
   </g>
   <g id="patch_81">
    <path d="M 475.62109 288.74 
L 479.75434 288.74 
L 479.75434 226.261904 
L 475.62109 226.261904 
z
" clip-path="url(#p4fbefccacf)" style="fill: #2a78d6"/>
   </g>
   <g id="patch_82">
    <path d="M 480.959872 288.74 
L 485.093122 288.74 
L 485.093122 166.226508 
L 480.959872 166.226508 
z
" clip-path="url(#p4fbefccacf)" style="fill: #2a78d6"/>
   </g>
   <g id="patch_83">
    <path d="M 486.298653 288.74 
L 490.431903 288.74 
L 490.431903 163.192508 
L 486.298653 163.192508 
z
" clip-path="url(#p4fbefccacf)" style="fill: #2a78d6"/>
   </g>
   <g id="patch_84">
    <path d="M 491.465216 288.74 
L 495.598466 288.74 
L 495.598466 206.992315 
L 491.465216 206.992315 
z
" clip-path="url(#p4fbefccacf)" style="fill: #2a78d6"/>
   </g>
   <g id="patch_85">
    <path d="M 496.803997 288.74 
L 500.937247 288.74 
L 500.937247 162.592428 
L 496.803997 162.592428 
z
" clip-path="url(#p4fbefccacf)" style="fill: #2a78d6"/>
   </g>
   <g id="patch_86">
    <path d="M 501.970559 288.74 
L 506.10381 288.74 
L 506.10381 37.978095 
L 501.970559 37.978095 
z
" clip-path="url(#p4fbefccacf)" style="fill: #2a78d6"/>
   </g>
   <g id="patch_87">
    <path d="M 507.309341 288.74 
L 511.442591 288.74 
L 511.442591 85.750588 
L 507.309341 85.750588 
z
" clip-path="url(#p4fbefccacf)" style="fill: #2a78d6"/>
   </g>
   <g id="patch_88">
    <path d="M 512.648122 288.74 
L 516.781372 288.74 
L 516.781372 158.358333 
L 512.648122 158.358333 
z
" clip-path="url(#p4fbefccacf)" style="fill: #2a78d6"/>
   </g>
   <g id="patch_89">
    <path d="M 517.642466 288.74 
L 521.775716 288.74 
L 521.775716 180.326876 
L 517.642466 180.326876 
z
" clip-path="url(#p4fbefccacf)" style="fill: #2a78d6"/>
   </g>
   <g id="patch_90">
    <path d="M 522.981247 288.74 
L 527.114497 288.74 
L 527.114497 201.77159 
L 522.981247 201.77159 
z
" clip-path="url(#p4fbefccacf)" style="fill: #2a78d6"/>
   </g>
   <g id="patch_91">
    <path d="M 528.14781 288.74 
L 532.28106 288.74 
L 532.28106 247.618256 
L 528.14781 247.618256 
z
" clip-path="url(#p4fbefccacf)" style="fill: #2a78d6"/>
   </g>
   <g id="patch_92">
    <path d="M 533.486591 288.74 
L 537.619841 288.74 
L 537.619841 243.666583 
L 533.486591 243.666583 
z
" clip-path="url(#p4fbefccacf)" style="fill: #2a78d6"/>
   </g>
   <g id="patch_93">
    <path d="M 538.653154 288.74 
L 542.786404 288.74 
L 542.786404 249.047174 
L 538.653154 249.047174 
z
" clip-path="url(#p4fbefccacf)" style="fill: #2a78d6"/>
   </g>
   <g id="patch_94">
    <path d="M 543.991935 288.74 
L 548.125185 288.74 
L 548.125185 247.655395 
L 543.991935 247.655395 
z
" clip-path="url(#p4fbefccacf)" style="fill: #2a78d6"/>
   </g>
   <g id="patch_95">
    <path d="M 549.330716 288.74 
L 553.463967 288.74 
L 553.463967 254.578517 
L 549.330716 254.578517 
z
" clip-path="url(#p4fbefccacf)" style="fill: #2a78d6"/>
   </g>
   <g id="patch_96">
    <path d="M 554.497279 288.74 
L 558.630529 288.74 
L 558.630529 262.234307 
L 554.497279 262.234307 
z
" clip-path="url(#p4fbefccacf)" style="fill: #2a78d6"/>
   </g>
   <g id="patch_97">
    <path d="M 559.83606 288.74 
L 563.96931 288.74 
L 563.96931 264.845569 
L 559.83606 264.845569 
z
" clip-path="url(#p4fbefccacf)" style="fill: #2a78d6"/>
   </g>
   <g id="patch_98">
    <path d="M 565.002623 288.74 
L 569.135873 288.74 
L 569.135873 262.112538 
L 565.002623 262.112538 
z
" clip-path="url(#p4fbefccacf)" style="fill: #2a78d6"/>
   </g>
   <g id="patch_99">
    <path d="M 570.341404 288.74 
L 574.474654 288.74 
L 574.474654 266.967688 
L 570.341404 266.967688 
z
" clip-path="url(#p4fbefccacf)" style="fill: #2a78d6"/>
   </g>
   <g id="patch_100">
    <path d="M 575.680186 288.74 
L 579.813436 288.74 
L 579.813436 265.091042 
L 575.680186 265.091042 
z
" clip-path="url(#p4fbefccacf)" style="fill: #2a78d6"/>
   </g>
   <g id="patch_101">
    <path d="M 580.502311 288.74 
L 584.635561 288.74 
L 584.635561 252.01703 
L 580.502311 252.01703 
z
" clip-path="url(#p4fbefccacf)" style="fill: #2a78d6"/>
   </g>
   <g id="patch_102">
    <path d="M 585.841092 288.74 
L 589.974342 288.74 
L 589.974342 261.356956 
L 585.841092 261.356956 
z
" clip-path="url(#p4fbefccacf)" style="fill: #2a78d6"/>
   </g>
   <g id="patch_103">
    <path d="M 591.007655 288.74 
L 595.140905 288.74 
L 595.140905 273.958501 
L 591.007655 273.958501 
z
" clip-path="url(#p4fbefccacf)" style="fill: #2a78d6"/>
   </g>
   <g id="patch_104">
    <path d="M 596.346436 288.74 
L 600.479686 288.74 
L 600.479686 272.798357 
L 596.346436 272.798357 
z
" clip-path="url(#p4fbefccacf)" style="fill: #2a78d6"/>
   </g>
   <g id="patch_105">
    <path d="M 601.512999 288.74 
L 605.646249 288.74 
L 605.646249 270.014015 
L 601.512999 270.014015 
z
" clip-path="url(#p4fbefccacf)" style="fill: #2a78d6"/>
   </g>
   <g id="patch_106">
    <path d="M 606.85178 288.74 
L 610.98503 288.74 
L 610.98503 270.268958 
L 606.85178 270.268958 
z
" clip-path="url(#p4fbefccacf)" style="fill: #2a78d6"/>
   </g>
   <g id="patch_107">
    <path d="M 612.190561 288.74 
L 616.323811 288.74 
L 616.323811 268.297904 
L 612.190561 268.297904 
z
" clip-path="url(#p4fbefccacf)" style="fill: #2a78d6"/>
   </g>
   <g id="patch_108">
    <path d="M 617.357124 288.74 
L 621.490374 288.74 
L 621.490374 265.678757 
L 617.357124 265.678757 
z
" clip-path="url(#p4fbefccacf)" style="fill: #2a78d6"/>
   </g>
   <g id="patch_109">
    <path d="M 622.695905 288.74 
L 626.829155 288.74 
L 626.829155 264.389024 
L 622.695905 264.389024 
z
" clip-path="url(#p4fbefccacf)" style="fill: #2a78d6"/>
   </g>
   <g id="patch_110">
    <path d="M 627.862468 288.74 
L 631.995718 288.74 
L 631.995718 260.72245 
L 627.862468 260.72245 
z
" clip-path="url(#p4fbefccacf)" style="fill: #2a78d6"/>
   </g>
   <g id="patch_111">
    <path d="M 633.201249 288.74 
L 637.334499 288.74 
L 637.334499 260.364535 
L 633.201249 260.364535 
z
" clip-path="url(#p4fbefccacf)" style="fill: #2a78d6"/>
   </g>
   <g id="patch_112">
    <path d="M 638.54003 288.74 
L 642.673281 288.74 
L 642.673281 260.219787 
L 638.54003 260.219787 
z
" clip-path="url(#p4fbefccacf)" style="fill: #2a78d6"/>
   </g>
   <g id="patch_113">
    <path d="M 643.362156 288.74 
L 647.495406 288.74 
L 647.495406 255.431133 
L 643.362156 255.431133 
z
" clip-path="url(#p4fbefccacf)" style="fill: #2a78d6"/>
   </g>
   <g id="patch_114">
    <path d="M 648.700937 288.74 
L 652.834187 288.74 
L 652.834187 263.313136 
L 648.700937 263.313136 
z
" clip-path="url(#p4fbefccacf)" style="fill: #2a78d6"/>
   </g>
   <g id="patch_115">
    <path d="M 653.8675 288.74 
L 658.00075 288.74 
L 658.00075 267.569104 
L 653.8675 267.569104 
z
" clip-path="url(#p4fbefccacf)" style="fill: #2a78d6"/>
   </g>
   <g id="patch_116">
    <path d="M 659.206281 288.74 
L 663.339531 288.74 
L 663.339531 270.159873 
L 659.206281 270.159873 
z
" clip-path="url(#p4fbefccacf)" style="fill: #2a78d6"/>
   </g>
   <g id="patch_117">
    <path d="M 664.372843 288.74 
L 668.506093 288.74 
L 668.506093 267.925566 
L 664.372843 267.925566 
z
" clip-path="url(#p4fbefccacf)" style="fill: #2a78d6"/>
   </g>
   <g id="patch_118">
    <path d="M 669.711625 288.74 
L 673.844875 288.74 
L 673.844875 272.401703 
L 669.711625 272.401703 
z
" clip-path="url(#p4fbefccacf)" style="fill: #2a78d6"/>
   </g>
   <g id="patch_119">
    <path d="M 36.781875 288.74 
L 704.181208 288.74 
" style="fill: none; stroke: #c3c2b7; stroke-width: 0.8; stroke-linejoin: miter; stroke-linecap: square"/>
   </g>
   <g id="text_19">
    <!-- 2023-12: 25,5% -->
    <g style="fill: #0b0b0b" transform="translate(471.998434 31.978095) scale(0.08 -0.08)">
     <defs>
      <path id="DejaVuSans-10" d="M 313 2009 
L 1997 2009 
L 1997 1497 
L 313 1497 
L 313 2009 
z
" transform="scale(0.015625)"/>
      <path id="DejaVuSans-1d" d="M 750 794 
L 1409 794 
L 1409 0 
L 750 0 
L 750 794 
z
M 750 3309 
L 1409 3309 
L 1409 2516 
L 750 2516 
L 750 3309 
z
" transform="scale(0.015625)"/>
      <path id="DejaVuSans-f" d="M 750 794 
L 1409 794 
L 1409 256 
L 897 -744 
L 494 -744 
L 750 256 
L 750 794 
z
" transform="scale(0.015625)"/>
     </defs>
     <use xlink:href="#DejaVuSans-15"/>
     <use xlink:href="#DejaVuSans-13" transform="translate(63.625 0)"/>
     <use xlink:href="#DejaVuSans-15" transform="translate(127.25 0)"/>
     <use xlink:href="#DejaVuSans-16" transform="translate(190.875 0)"/>
     <use xlink:href="#DejaVuSans-10" transform="translate(254.5 0)"/>
     <use xlink:href="#DejaVuSans-14" transform="translate(290.578125 0)"/>
     <use xlink:href="#DejaVuSans-15" transform="translate(354.203125 0)"/>
     <use xlink:href="#DejaVuSans-1d" transform="translate(417.828125 0)"/>
     <use xlink:href="#DejaVuSans-3" transform="translate(451.515625 0)"/>
     <use xlink:href="#DejaVuSans-15" transform="translate(483.296875 0)"/>
     <use xlink:href="#DejaVuSans-18" transform="translate(546.921875 0)"/>
     <use xlink:href="#DejaVuSans-f" transform="translate(610.546875 0)"/>
     <use xlink:href="#DejaVuSans-18" transform="translate(642.328125 0)"/>
     <use xlink:href="#DejaVuSans-8" transform="translate(705.953125 0)"/>
    </g>
   </g>
   <g id="text_20">
    <!-- 2026-08: 1,7% -->
    <g style="fill: #0b0b0b" transform="translate(642.2845 250.401703) scale(0.08 -0.08)">
     <use xlink:href="#DejaVuSans-15"/>
     <use xlink:href="#DejaVuSans-13" transform="translate(63.625 0)"/>
     <use xlink:href="#DejaVuSans-15" transform="translate(127.25 0)"/>
     <use xlink:href="#DejaVuSans-19" transform="translate(190.875 0)"/>
     <use xlink:href="#DejaVuSans-10" transform="translate(254.5 0)"/>
     <use xlink:href="#DejaVuSans-13" transform="translate(290.578125 0)"/>
     <use xlink:href="#DejaVuSans-1b" transform="translate(354.203125 0)"/>
     <use xlink:href="#DejaVuSans-1d" transform="translate(417.828125 0)"/>
     <use xlink:href="#DejaVuSans-3" transform="translate(451.515625 0)"/>
     <use xlink:href="#DejaVuSans-14" transform="translate(483.296875 0)"/>
     <use xlink:href="#DejaVuSans-f" transform="translate(546.921875 0)"/>
     <use xlink:href="#DejaVuSans-1a" transform="translate(578.703125 0)"/>
     <use xlink:href="#DejaVuSans-8" transform="translate(642.328125 0)"/>
    </g>
   </g>
   <g id="text_21">
    <!-- Inflación mensual de Argentina: bajó desde el pico de 25,5% (2023-12) pero sigue en 34% interanual (2026-08) -->
    <g style="fill: #0b0b0b" transform="translate(36.781875 19.44) scale(0.105 -0.105)">
     <defs>
      <path id="DejaVuSans-2c" d="M 628 4666 
L 1259 4666 
L 1259 0 
L 628 0 
L 628 4666 
z
" transform="scale(0.015625)"/>
      <path id="DejaVuSans-13b0" d="M 1831 4863 
L 3431 4863 
L 3431 0 
L 2853 0 
L 2853 4384 
L 1825 4384 
Q 1516 4384 1395 4259 
Q 1275 4134 1275 3809 
L 1275 3500 
L 2222 3500 
L 2222 3053 
L 1275 3053 
L 1275 0 
L 697 0 
L 697 3053 
L 147 3053 
L 147 3500 
L 697 3500 
L 697 3744 
Q 697 4328 969 4595 
Q 1241 4863 1831 4863 
z
" transform="scale(0.015625)"/>
      <path id="DejaVuSans-46" d="M 3122 3366 
L 3122 2828 
Q 2878 2963 2633 3030 
Q 2388 3097 2138 3097 
Q 1578 3097 1268 2742 
Q 959 2388 959 1747 
Q 959 1106 1268 751 
Q 1578 397 2138 397 
Q 2388 397 2633 464 
Q 2878 531 3122 666 
L 3122 134 
Q 2881 22 2623 -34 
Q 2366 -91 2075 -91 
Q 1284 -91 818 406 
Q 353 903 353 1747 
Q 353 2603 823 3093 
Q 1294 3584 2113 3584 
Q 2378 3584 2631 3529 
Q 2884 3475 3122 3366 
z
" transform="scale(0.015625)"/>
      <path id="DejaVuSans-4c" d="M 603 3500 
L 1178 3500 
L 1178 0 
L 603 0 
L 603 3500 
z
M 603 4863 
L 1178 4863 
L 1178 4134 
L 603 4134 
L 603 4863 
z
" transform="scale(0.015625)"/>
      <path id="DejaVuSans-b5" d="M 1959 3097 
Q 1497 3097 1228 2736 
Q 959 2375 959 1747 
Q 959 1119 1226 758 
Q 1494 397 1959 397 
Q 2419 397 2687 759 
Q 2956 1122 2956 1747 
Q 2956 2369 2687 2733 
Q 2419 3097 1959 3097 
z
M 1959 3584 
Q 2709 3584 3137 3096 
Q 3566 2609 3566 1747 
Q 3566 888 3137 398 
Q 2709 -91 1959 -91 
Q 1206 -91 779 398 
Q 353 888 353 1747 
Q 353 2609 779 3096 
Q 1206 3584 1959 3584 
z
M 2393 5119 
L 3015 5119 
L 1997 3944 
L 1518 3944 
L 2393 5119 
z
" transform="scale(0.015625)"/>
      <path id="DejaVuSans-47" d="M 2906 2969 
L 2906 4863 
L 3481 4863 
L 3481 0 
L 2906 0 
L 2906 525 
Q 2725 213 2448 61 
Q 2172 -91 1784 -91 
Q 1150 -91 751 415 
Q 353 922 353 1747 
Q 353 2572 751 3078 
Q 1150 3584 1784 3584 
Q 2172 3584 2448 3432 
Q 2725 3281 2906 2969 
z
M 947 1747 
Q 947 1113 1208 752 
Q 1469 391 1925 391 
Q 2381 391 2643 752 
Q 2906 1113 2906 1747 
Q 2906 2381 2643 2742 
Q 2381 3103 1925 3103 
Q 1469 3103 1208 2742 
Q 947 2381 947 1747 
z
" transform="scale(0.015625)"/>
      <path id="DejaVuSans-24" d="M 2188 4044 
L 1331 1722 
L 3047 1722 
L 2188 4044 
z
M 1831 4666 
L 2547 4666 
L 4325 0 
L 3669 0 
L 3244 1197 
L 1141 1197 
L 716 0 
L 50 0 
L 1831 4666 
z
" transform="scale(0.015625)"/>
      <path id="DejaVuSans-55" d="M 2631 2963 
Q 2534 3019 2420 3045 
Q 2306 3072 2169 3072 
Q 1681 3072 1420 2755 
Q 1159 2438 1159 1844 
L 1159 0 
L 581 0 
L 581 3500 
L 1159 3500 
L 1159 2956 
Q 1341 3275 1631 3429 
Q 1922 3584 2338 3584 
Q 2397 3584 2469 3576 
Q 2541 3569 2628 3553 
L 2631 2963 
z
" transform="scale(0.015625)"/>
      <path id="DejaVuSans-4a" d="M 2906 1791 
Q 2906 2416 2648 2759 
Q 2391 3103 1925 3103 
Q 1463 3103 1205 2759 
Q 947 2416 947 1791 
Q 947 1169 1205 825 
Q 1463 481 1925 481 
Q 2391 481 2648 825 
Q 2906 1169 2906 1791 
z
M 3481 434 
Q 3481 -459 3084 -895 
Q 2688 -1331 1869 -1331 
Q 1566 -1331 1297 -1286 
Q 1028 -1241 775 -1147 
L 775 -588 
Q 1028 -725 1275 -790 
Q 1522 -856 1778 -856 
Q 2344 -856 2625 -561 
Q 2906 -266 2906 331 
L 2906 616 
Q 2728 306 2450 153 
Q 2172 0 1784 0 
Q 1141 0 747 490 
Q 353 981 353 1791 
Q 353 2603 747 3093 
Q 1141 3584 1784 3584 
Q 2172 3584 2450 3431 
Q 2728 3278 2906 2969 
L 2906 3500 
L 3481 3500 
L 3481 434 
z
" transform="scale(0.015625)"/>
      <path id="DejaVuSans-57" d="M 1172 4494 
L 1172 3500 
L 2356 3500 
L 2356 3053 
L 1172 3053 
L 1172 1153 
Q 1172 725 1289 603 
Q 1406 481 1766 481 
L 2356 481 
L 2356 0 
L 1766 0 
Q 1100 0 847 248 
Q 594 497 594 1153 
L 594 3053 
L 172 3053 
L 172 3500 
L 594 3500 
L 594 4494 
L 1172 4494 
z
" transform="scale(0.015625)"/>
      <path id="DejaVuSans-45" d="M 3116 1747 
Q 3116 2381 2855 2742 
Q 2594 3103 2138 3103 
Q 1681 3103 1420 2742 
Q 1159 2381 1159 1747 
Q 1159 1113 1420 752 
Q 1681 391 2138 391 
Q 2594 391 2855 752 
Q 3116 1113 3116 1747 
z
M 1159 2969 
Q 1341 3281 1617 3432 
Q 1894 3584 2278 3584 
Q 2916 3584 3314 3078 
Q 3713 2572 3713 1747 
Q 3713 922 3314 415 
Q 2916 -91 2278 -91 
Q 1894 -91 1617 61 
Q 1341 213 1159 525 
L 1159 0 
L 581 0 
L 581 4863 
L 1159 4863 
L 1159 2969 
z
" transform="scale(0.015625)"/>
      <path id="DejaVuSans-4d" d="M 603 3500 
L 1178 3500 
L 1178 -63 
Q 1178 -731 923 -1031 
Q 669 -1331 103 -1331 
L -116 -1331 
L -116 -844 
L 38 -844 
Q 366 -844 484 -692 
Q 603 -541 603 -63 
L 603 3500 
z
M 603 4863 
L 1178 4863 
L 1178 4134 
L 603 4134 
L 603 4863 
z
" transform="scale(0.015625)"/>
      <path id="DejaVuSans-53" d="M 1159 525 
L 1159 -1331 
L 581 -1331 
L 581 3500 
L 1159 3500 
L 1159 2969 
Q 1341 3281 1617 3432 
Q 1894 3584 2278 3584 
Q 2916 3584 3314 3078 
Q 3713 2572 3713 1747 
Q 3713 922 3314 415 
Q 2916 -91 2278 -91 
Q 1894 -91 1617 61 
Q 1341 213 1159 525 
z
M 3116 1747 
Q 3116 2381 2855 2742 
Q 2594 3103 2138 3103 
Q 1681 3103 1420 2742 
Q 1159 2381 1159 1747 
Q 1159 1113 1420 752 
Q 1681 391 2138 391 
Q 2594 391 2855 752 
Q 3116 1113 3116 1747 
z
" transform="scale(0.015625)"/>
      <path id="DejaVuSans-52" d="M 1959 3097 
Q 1497 3097 1228 2736 
Q 959 2375 959 1747 
Q 959 1119 1226 758 
Q 1494 397 1959 397 
Q 2419 397 2687 759 
Q 2956 1122 2956 1747 
Q 2956 2369 2687 2733 
Q 2419 3097 1959 3097 
z
M 1959 3584 
Q 2709 3584 3137 3096 
Q 3566 2609 3566 1747 
Q 3566 888 3137 398 
Q 2709 -91 1959 -91 
Q 1206 -91 779 398 
Q 353 888 353 1747 
Q 353 2609 779 3096 
Q 1206 3584 1959 3584 
z
" transform="scale(0.015625)"/>
      <path id="DejaVuSans-b" d="M 1984 4856 
Q 1566 4138 1362 3434 
Q 1159 2731 1159 2009 
Q 1159 1288 1364 580 
Q 1569 -128 1984 -844 
L 1484 -844 
Q 1016 -109 783 600 
Q 550 1309 550 2009 
Q 550 2706 781 3412 
Q 1013 4119 1484 4856 
L 1984 4856 
z
" transform="scale(0.015625)"/>
      <path id="DejaVuSans-c" d="M 513 4856 
L 1013 4856 
Q 1481 4119 1714 3412 
Q 1947 2706 1947 2009 
Q 1947 1309 1714 600 
Q 1481 -109 1013 -844 
L 513 -844 
Q 928 -128 1133 580 
Q 1338 1288 1338 2009 
Q 1338 2731 1133 3434 
Q 928 4138 513 4856 
z
" transform="scale(0.015625)"/>
     </defs>
     <use xlink:href="#DejaVuSans-2c"/>
     <use xlink:href="#DejaVuSans-51" transform="translate(29.5 0)"/>
     <use xlink:href="#DejaVuSans-13b0" transform="translate(92.875 0)"/>
     <use xlink:href="#DejaVuSans-44" transform="translate(155.859375 0)"/>
     <use xlink:href="#DejaVuSans-46" transform="translate(217.140625 0)"/>
     <use xlink:href="#DejaVuSans-4c" transform="translate(272.125 0)"/>
     <use xlink:href="#DejaVuSans-b5" transform="translate(299.90625 0)"/>
     <use xlink:href="#DejaVuSans-51" transform="translate(361.09375 0)"/>
     <use xlink:href="#DejaVuSans-3" transform="translate(424.46875 0)"/>
     <use xlink:href="#DejaVuSans-50" transform="translate(456.25 0)"/>
     <use xlink:href="#DejaVuSans-48" transform="translate(553.65625 0)"/>
     <use xlink:href="#DejaVuSans-51" transform="translate(615.1875 0)"/>
     <use xlink:href="#DejaVuSans-56" transform="translate(678.5625 0)"/>
     <use xlink:href="#DejaVuSans-58" transform="translate(730.65625 0)"/>
     <use xlink:href="#DejaVuSans-44" transform="translate(794.03125 0)"/>
     <use xlink:href="#DejaVuSans-4f" transform="translate(855.3125 0)"/>
     <use xlink:href="#DejaVuSans-3" transform="translate(883.09375 0)"/>
     <use xlink:href="#DejaVuSans-47" transform="translate(914.875 0)"/>
     <use xlink:href="#DejaVuSans-48" transform="translate(978.359375 0)"/>
     <use xlink:href="#DejaVuSans-3" transform="translate(1039.890625 0)"/>
     <use xlink:href="#DejaVuSans-24" transform="translate(1071.671875 0)"/>
     <use xlink:href="#DejaVuSans-55" transform="translate(1140.078125 0)"/>
     <use xlink:href="#DejaVuSans-4a" transform="translate(1179.4375 0)"/>
     <use xlink:href="#DejaVuSans-48" transform="translate(1242.921875 0)"/>
     <use xlink:href="#DejaVuSans-51" transform="translate(1304.453125 0)"/>
     <use xlink:href="#DejaVuSans-57" transform="translate(1367.828125 0)"/>
     <use xlink:href="#DejaVuSans-4c" transform="translate(1407.03125 0)"/>
     <use xlink:href="#DejaVuSans-51" transform="translate(1434.8125 0)"/>
     <use xlink:href="#DejaVuSans-44" transform="translate(1498.1875 0)"/>
     <use xlink:href="#DejaVuSans-1d" transform="translate(1559.46875 0)"/>
     <use xlink:href="#DejaVuSans-3" transform="translate(1593.15625 0)"/>
     <use xlink:href="#DejaVuSans-45" transform="translate(1624.9375 0)"/>
     <use xlink:href="#DejaVuSans-44" transform="translate(1688.421875 0)"/>
     <use xlink:href="#DejaVuSans-4d" transform="translate(1749.703125 0)"/>
     <use xlink:href="#DejaVuSans-b5" transform="translate(1777.484375 0)"/>
     <use xlink:href="#DejaVuSans-3" transform="translate(1838.671875 0)"/>
     <use xlink:href="#DejaVuSans-47" transform="translate(1870.453125 0)"/>
     <use xlink:href="#DejaVuSans-48" transform="translate(1933.9375 0)"/>
     <use xlink:href="#DejaVuSans-56" transform="translate(1995.46875 0)"/>
     <use xlink:href="#DejaVuSans-47" transform="translate(2047.5625 0)"/>
     <use xlink:href="#DejaVuSans-48" transform="translate(2111.046875 0)"/>
     <use xlink:href="#DejaVuSans-3" transform="translate(2172.578125 0)"/>
     <use xlink:href="#DejaVuSans-48" transform="translate(2204.359375 0)"/>
     <use xlink:href="#DejaVuSans-4f" transform="translate(2265.890625 0)"/>
     <use xlink:href="#DejaVuSans-3" transform="translate(2293.671875 0)"/>
     <use xlink:href="#DejaVuSans-53" transform="translate(2325.453125 0)"/>
     <use xlink:href="#DejaVuSans-4c" transform="translate(2388.9375 0)"/>
     <use xlink:href="#DejaVuSans-46" transform="translate(2416.71875 0)"/>
     <use xlink:href="#DejaVuSans-52" transform="translate(2471.703125 0)"/>
     <use xlink:href="#DejaVuSans-3" transform="translate(2532.890625 0)"/>
     <use xlink:href="#DejaVuSans-47" transform="translate(2564.671875 0)"/>
     <use xlink:href="#DejaVuSans-48" transform="translate(2628.15625 0)"/>
     <use xlink:href="#DejaVuSans-3" transform="translate(2689.6875 0)"/>
     <use xlink:href="#DejaVuSans-15" transform="translate(2721.46875 0)"/>
     <use xlink:href="#DejaVuSans-18" transform="translate(2785.09375 0)"/>
     <use xlink:href="#DejaVuSans-f" transform="translate(2848.71875 0)"/>
     <use xlink:href="#DejaVuSans-18" transform="translate(2880.5 0)"/>
     <use xlink:href="#DejaVuSans-8" transform="translate(2944.125 0)"/>
     <use xlink:href="#DejaVuSans-3" transform="translate(3039.140625 0)"/>
     <use xlink:href="#DejaVuSans-b" transform="translate(3070.921875 0)"/>
     <use xlink:href="#DejaVuSans-15" transform="translate(3109.9375 0)"/>
     <use xlink:href="#DejaVuSans-13" transform="translate(3173.5625 0)"/>
     <use xlink:href="#DejaVuSans-15" transform="translate(3237.1875 0)"/>
     <use xlink:href="#DejaVuSans-16" transform="translate(3300.8125 0)"/>
     <use xlink:href="#DejaVuSans-10" transform="translate(3364.4375 0)"/>
     <use xlink:href="#DejaVuSans-14" transform="translate(3400.515625 0)"/>
     <use xlink:href="#DejaVuSans-15" transform="translate(3464.140625 0)"/>
     <use xlink:href="#DejaVuSans-c" transform="translate(3527.765625 0)"/>
     <use xlink:href="#DejaVuSans-3" transform="translate(3566.78125 0)"/>
     <use xlink:href="#DejaVuSans-53" transform="translate(3598.5625 0)"/>
     <use xlink:href="#DejaVuSans-48" transform="translate(3662.046875 0)"/>
     <use xlink:href="#DejaVuSans-55" transform="translate(3723.578125 0)"/>
     <use xlink:href="#DejaVuSans-52" transform="translate(3762.484375 0)"/>
     <use xlink:href="#DejaVuSans-3" transform="translate(3823.671875 0)"/>
     <use xlink:href="#DejaVuSans-56" transform="translate(3855.453125 0)"/>
     <use xlink:href="#DejaVuSans-4c" transform="translate(3907.546875 0)"/>
     <use xlink:href="#DejaVuSans-4a" transform="translate(3935.328125 0)"/>
     <use xlink:href="#DejaVuSans-58" transform="translate(3998.8125 0)"/>
     <use xlink:href="#DejaVuSans-48" transform="translate(4062.1875 0)"/>
     <use xlink:href="#DejaVuSans-3" transform="translate(4123.71875 0)"/>
     <use xlink:href="#DejaVuSans-48" transform="translate(4155.5 0)"/>
     <use xlink:href="#DejaVuSans-51" transform="translate(4217.03125 0)"/>
     <use xlink:href="#DejaVuSans-3" transform="translate(4280.40625 0)"/>
     <use xlink:href="#DejaVuSans-16" transform="translate(4312.1875 0)"/>
     <use xlink:href="#DejaVuSans-17" transform="translate(4375.8125 0)"/>
     <use xlink:href="#DejaVuSans-8" transform="translate(4439.4375 0)"/>
     <use xlink:href="#DejaVuSans-3" transform="translate(4534.453125 0)"/>
     <use xlink:href="#DejaVuSans-4c" transform="translate(4566.234375 0)"/>
     <use xlink:href="#DejaVuSans-51" transform="translate(4594.015625 0)"/>
     <use xlink:href="#DejaVuSans-57" transform="translate(4657.390625 0)"/>
     <use xlink:href="#DejaVuSans-48" transform="translate(4696.59375 0)"/>
     <use xlink:href="#DejaVuSans-55" transform="translate(4758.125 0)"/>
     <use xlink:href="#DejaVuSans-44" transform="translate(4799.234375 0)"/>
     <use xlink:href="#DejaVuSans-51" transform="translate(4860.515625 0)"/>
     <use xlink:href="#DejaVuSans-58" transform="translate(4923.890625 0)"/>
     <use xlink:href="#DejaVuSans-44" transform="translate(4987.265625 0)"/>
     <use xlink:href="#DejaVuSans-4f" transform="translate(5048.546875 0)"/>
     <use xlink:href="#DejaVuSans-3" transform="translate(5076.328125 0)"/>
     <use xlink:href="#DejaVuSans-b" transform="translate(5108.109375 0)"/>
     <use xlink:href="#DejaVuSans-15" transform="translate(5147.125 0)"/>
     <use xlink:href="#DejaVuSans-13" transform="translate(5210.75 0)"/>
     <use xlink:href="#DejaVuSans-15" transform="translate(5274.375 0)"/>
     <use xlink:href="#DejaVuSans-19" transform="translate(5338 0)"/>
     <use xlink:href="#DejaVuSans-10" transform="translate(5401.625 0)"/>
     <use xlink:href="#DejaVuSans-13" transform="translate(5437.703125 0)"/>
     <use xlink:href="#DejaVuSans-1b" transform="translate(5501.328125 0)"/>
     <use xlink:href="#DejaVuSans-c" transform="translate(5564.953125 0)"/>
    </g>
   </g>
  </g>
  <g id="text_22">
   <!-- Fuente: INDEC, IPC Nacional base dic-2016, vía API de Series de Tiempo (datos.gob.ar). Elaboración: Colossus Lab. -->
   <g style="fill: #52514e" transform="translate(7.2 320.698359) scale(0.07 -0.07)">
    <defs>
     <path id="DejaVuSans-29" d="M 628 4666 
L 3309 4666 
L 3309 4134 
L 1259 4134 
L 1259 2759 
L 3109 2759 
L 3109 2228 
L 1259 2228 
L 1259 0 
L 628 0 
L 628 4666 
z
" transform="scale(0.015625)"/>
     <path id="DejaVuSans-31" d="M 628 4666 
L 1478 4666 
L 3547 763 
L 3547 4666 
L 4159 4666 
L 4159 0 
L 3309 0 
L 1241 3903 
L 1241 0 
L 628 0 
L 628 4666 
z
" transform="scale(0.015625)"/>
     <path id="DejaVuSans-27" d="M 1259 4147 
L 1259 519 
L 2022 519 
Q 2988 519 3436 956 
Q 3884 1394 3884 2338 
Q 3884 3275 3436 3711 
Q 2988 4147 2022 4147 
L 1259 4147 
z
M 628 4666 
L 1925 4666 
Q 3281 4666 3915 4102 
Q 4550 3538 4550 2338 
Q 4550 1131 3912 565 
Q 3275 0 1925 0 
L 628 0 
L 628 4666 
z
" transform="scale(0.015625)"/>
     <path id="DejaVuSans-28" d="M 628 4666 
L 3578 4666 
L 3578 4134 
L 1259 4134 
L 1259 2753 
L 3481 2753 
L 3481 2222 
L 1259 2222 
L 1259 531 
L 3634 531 
L 3634 0 
L 628 0 
L 628 4666 
z
" transform="scale(0.015625)"/>
     <path id="DejaVuSans-26" d="M 4122 4306 
L 4122 3641 
Q 3803 3938 3442 4084 
Q 3081 4231 2675 4231 
Q 1875 4231 1450 3742 
Q 1025 3253 1025 2328 
Q 1025 1406 1450 917 
Q 1875 428 2675 428 
Q 3081 428 3442 575 
Q 3803 722 4122 1019 
L 4122 359 
Q 3791 134 3420 21 
Q 3050 -91 2638 -91 
Q 1578 -91 968 557 
Q 359 1206 359 2328 
Q 359 3453 968 4101 
Q 1578 4750 2638 4750 
Q 3056 4750 3426 4639 
Q 3797 4528 4122 4306 
z
" transform="scale(0.015625)"/>
     <path id="DejaVuSans-33" d="M 1259 4147 
L 1259 2394 
L 2053 2394 
Q 2494 2394 2734 2622 
Q 2975 2850 2975 3272 
Q 2975 3691 2734 3919 
Q 2494 4147 2053 4147 
L 1259 4147 
z
M 628 4666 
L 2053 4666 
Q 2838 4666 3239 4311 
Q 3641 3956 3641 3272 
Q 3641 2581 3239 2228 
Q 2838 1875 2053 1875 
L 1259 1875 
L 1259 0 
L 628 0 
L 628 4666 
z
" transform="scale(0.015625)"/>
     <path id="DejaVuSans-59" d="M 191 3500 
L 800 3500 
L 1894 563 
L 2988 3500 
L 3597 3500 
L 2284 0 
L 1503 0 
L 191 3500 
z
" transform="scale(0.015625)"/>
     <path id="DejaVuSans-af" d="M 1325 5119 
L 1947 5119 
L 929 3944 
L 450 3944 
L 1325 5119 
z
M 603 3500 
L 1178 3500 
L 1178 0 
L 603 0 
L 603 3500 
z
M 891 3584 
L 891 3584 
z
" transform="scale(0.015625)"/>
     <path id="DejaVuSans-36" d="M 3425 4513 
L 3425 3897 
Q 3066 4069 2747 4153 
Q 2428 4238 2131 4238 
Q 1616 4238 1336 4038 
Q 1056 3838 1056 3469 
Q 1056 3159 1242 3001 
Q 1428 2844 1947 2747 
L 2328 2669 
Q 3034 2534 3370 2195 
Q 3706 1856 3706 1288 
Q 3706 609 3251 259 
Q 2797 -91 1919 -91 
Q 1588 -91 1214 -16 
Q 841 59 441 206 
L 441 856 
Q 825 641 1194 531 
Q 1563 422 1919 422 
Q 2459 422 2753 634 
Q 3047 847 3047 1241 
Q 3047 1584 2836 1778 
Q 2625 1972 2144 2069 
L 1759 2144 
Q 1053 2284 737 2584 
Q 422 2884 422 3419 
Q 422 4038 858 4394 
Q 1294 4750 2059 4750 
Q 2388 4750 2728 4690 
Q 3069 4631 3425 4513 
z
" transform="scale(0.015625)"/>
     <path id="DejaVuSans-37" d="M -19 4666 
L 3928 4666 
L 3928 4134 
L 2272 4134 
L 2272 0 
L 1638 0 
L 1638 4134 
L -19 4134 
L -19 4666 
z
" transform="scale(0.015625)"/>
     <path id="DejaVuSans-11" d="M 684 794 
L 1344 794 
L 1344 0 
L 684 0 
L 684 794 
z
" transform="scale(0.015625)"/>
     <path id="DejaVuSans-2f" d="M 628 4666 
L 1259 4666 
L 1259 531 
L 3531 531 
L 3531 0 
L 628 0 
L 628 4666 
z
" transform="scale(0.015625)"/>
    </defs>
    <use xlink:href="#DejaVuSans-29"/>
    <use xlink:href="#DejaVuSans-58" transform="translate(52.046875 0)"/>
    <use xlink:href="#DejaVuSans-48" transform="translate(115.421875 0)"/>
    <use xlink:href="#DejaVuSans-51" transform="translate(176.953125 0)"/>
    <use xlink:href="#DejaVuSans-57" transform="translate(240.328125 0)"/>
    <use xlink:href="#DejaVuSans-48" transform="translate(279.53125 0)"/>
    <use xlink:href="#DejaVuSans-1d" transform="translate(341.0625 0)"/>
    <use xlink:href="#DejaVuSans-3" transform="translate(374.75 0)"/>
    <use xlink:href="#DejaVuSans-2c" transform="translate(406.53125 0)"/>
    <use xlink:href="#DejaVuSans-31" transform="translate(436.03125 0)"/>
    <use xlink:href="#DejaVuSans-27" transform="translate(510.84375 0)"/>
    <use xlink:href="#DejaVuSans-28" transform="translate(587.84375 0)"/>
    <use xlink:href="#DejaVuSans-26" transform="translate(651.03125 0)"/>
    <use xlink:href="#DejaVuSans-f" transform="translate(720.859375 0)"/>
    <use xlink:href="#DejaVuSans-3" transform="translate(752.640625 0)"/>
    <use xlink:href="#DejaVuSans-2c" transform="translate(784.421875 0)"/>
    <use xlink:href="#DejaVuSans-33" transform="translate(813.921875 0)"/>
    <use xlink:href="#DejaVuSans-26" transform="translate(874.21875 0)"/>
    <use xlink:href="#DejaVuSans-3" transform="translate(944.046875 0)"/>
    <use xlink:href="#DejaVuSans-31" transform="translate(975.828125 0)"/>
    <use xlink:href="#DejaVuSans-44" transform="translate(1050.640625 0)"/>
    <use xlink:href="#DejaVuSans-46" transform="translate(1111.921875 0)"/>
    <use xlink:href="#DejaVuSans-4c" transform="translate(1166.90625 0)"/>
    <use xlink:href="#DejaVuSans-52" transform="translate(1194.6875 0)"/>
    <use xlink:href="#DejaVuSans-51" transform="translate(1255.875 0)"/>
    <use xlink:href="#DejaVuSans-44" transform="translate(1319.25 0)"/>
    <use xlink:href="#DejaVuSans-4f" transform="translate(1380.53125 0)"/>
    <use xlink:href="#DejaVuSans-3" transform="translate(1408.3125 0)"/>
    <use xlink:href="#DejaVuSans-45" transform="translate(1440.09375 0)"/>
    <use xlink:href="#DejaVuSans-44" transform="translate(1503.578125 0)"/>
    <use xlink:href="#DejaVuSans-56" transform="translate(1564.859375 0)"/>
    <use xlink:href="#DejaVuSans-48" transform="translate(1616.953125 0)"/>
    <use xlink:href="#DejaVuSans-3" transform="translate(1678.484375 0)"/>
    <use xlink:href="#DejaVuSans-47" transform="translate(1710.265625 0)"/>
    <use xlink:href="#DejaVuSans-4c" transform="translate(1773.75 0)"/>
    <use xlink:href="#DejaVuSans-46" transform="translate(1801.53125 0)"/>
    <use xlink:href="#DejaVuSans-10" transform="translate(1856.515625 0)"/>
    <use xlink:href="#DejaVuSans-15" transform="translate(1892.59375 0)"/>
    <use xlink:href="#DejaVuSans-13" transform="translate(1956.21875 0)"/>
    <use xlink:href="#DejaVuSans-14" transform="translate(2019.84375 0)"/>
    <use xlink:href="#DejaVuSans-19" transform="translate(2083.46875 0)"/>
    <use xlink:href="#DejaVuSans-f" transform="translate(2147.09375 0)"/>
    <use xlink:href="#DejaVuSans-3" transform="translate(2178.875 0)"/>
    <use xlink:href="#DejaVuSans-59" transform="translate(2210.65625 0)"/>
    <use xlink:href="#DejaVuSans-af" transform="translate(2269.84375 0)"/>
    <use xlink:href="#DejaVuSans-44" transform="translate(2297.625 0)"/>
    <use xlink:href="#DejaVuSans-3" transform="translate(2358.90625 0)"/>
    <use xlink:href="#DejaVuSans-24" transform="translate(2390.6875 0)"/>
    <use xlink:href="#DejaVuSans-33" transform="translate(2459.09375 0)"/>
    <use xlink:href="#DejaVuSans-2c" transform="translate(2519.390625 0)"/>
    <use xlink:href="#DejaVuSans-3" transform="translate(2548.890625 0)"/>
    <use xlink:href="#DejaVuSans-47" transform="translate(2580.671875 0)"/>
    <use xlink:href="#DejaVuSans-48" transform="translate(2644.15625 0)"/>
    <use xlink:href="#DejaVuSans-3" transform="translate(2705.6875 0)"/>
    <use xlink:href="#DejaVuSans-36" transform="translate(2737.46875 0)"/>
    <use xlink:href="#DejaVuSans-48" transform="translate(2800.953125 0)"/>
    <use xlink:href="#DejaVuSans-55" transform="translate(2862.484375 0)"/>
    <use xlink:href="#DejaVuSans-4c" transform="translate(2903.59375 0)"/>
    <use xlink:href="#DejaVuSans-48" transform="translate(2931.375 0)"/>
    <use xlink:href="#DejaVuSans-56" transform="translate(2992.90625 0)"/>
    <use xlink:href="#DejaVuSans-3" transform="translate(3045 0)"/>
    <use xlink:href="#DejaVuSans-47" transform="translate(3076.78125 0)"/>
    <use xlink:href="#DejaVuSans-48" transform="translate(3140.265625 0)"/>
    <use xlink:href="#DejaVuSans-3" transform="translate(3201.796875 0)"/>
    <use xlink:href="#DejaVuSans-37" transform="translate(3233.578125 0)"/>
    <use xlink:href="#DejaVuSans-4c" transform="translate(3291.578125 0)"/>
    <use xlink:href="#DejaVuSans-48" transform="translate(3319.359375 0)"/>
    <use xlink:href="#DejaVuSans-50" transform="translate(3380.890625 0)"/>
    <use xlink:href="#DejaVuSans-53" transform="translate(3478.296875 0)"/>
    <use xlink:href="#DejaVuSans-52" transform="translate(3541.78125 0)"/>
    <use xlink:href="#DejaVuSans-3" transform="translate(3602.96875 0)"/>
    <use xlink:href="#DejaVuSans-b" transform="translate(3634.75 0)"/>
    <use xlink:href="#DejaVuSans-47" transform="translate(3673.765625 0)"/>
    <use xlink:href="#DejaVuSans-44" transform="translate(3737.25 0)"/>
    <use xlink:href="#DejaVuSans-57" transform="translate(3798.53125 0)"/>
    <use xlink:href="#DejaVuSans-52" transform="translate(3837.734375 0)"/>
    <use xlink:href="#DejaVuSans-56" transform="translate(3898.921875 0)"/>
    <use xlink:href="#DejaVuSans-11" transform="translate(3951.015625 0)"/>
    <use xlink:href="#DejaVuSans-4a" transform="translate(3982.796875 0)"/>
    <use xlink:href="#DejaVuSans-52" transform="translate(4046.28125 0)"/>
    <use xlink:href="#DejaVuSans-45" transform="translate(4107.46875 0)"/>
    <use xlink:href="#DejaVuSans-11" transform="translate(4170.953125 0)"/>
    <use xlink:href="#DejaVuSans-44" transform="translate(4202.734375 0)"/>
    <use xlink:href="#DejaVuSans-55" transform="translate(4264.015625 0)"/>
    <use xlink:href="#DejaVuSans-c" transform="translate(4305.125 0)"/>
    <use xlink:href="#DejaVuSans-11" transform="translate(4344.140625 0)"/>
    <use xlink:href="#DejaVuSans-3" transform="translate(4375.921875 0)"/>
    <use xlink:href="#DejaVuSans-28" transform="translate(4407.703125 0)"/>
    <use xlink:href="#DejaVuSans-4f" transform="translate(4470.890625 0)"/>
    <use xlink:href="#DejaVuSans-44" transform="translate(4498.671875 0)"/>
    <use xlink:href="#DejaVuSans-45" transform="translate(4559.953125 0)"/>
    <use xlink:href="#DejaVuSans-52" transform="translate(4623.4375 0)"/>
    <use xlink:href="#DejaVuSans-55" transform="translate(4684.625 0)"/>
    <use xlink:href="#DejaVuSans-44" transform="translate(4725.734375 0)"/>
    <use xlink:href="#DejaVuSans-46" transform="translate(4787.015625 0)"/>
    <use xlink:href="#DejaVuSans-4c" transform="translate(4842 0)"/>
    <use xlink:href="#DejaVuSans-b5" transform="translate(4869.78125 0)"/>
    <use xlink:href="#DejaVuSans-51" transform="translate(4930.96875 0)"/>
    <use xlink:href="#DejaVuSans-1d" transform="translate(4994.34375 0)"/>
    <use xlink:href="#DejaVuSans-3" transform="translate(5028.03125 0)"/>
    <use xlink:href="#DejaVuSans-26" transform="translate(5059.8125 0)"/>
    <use xlink:href="#DejaVuSans-52" transform="translate(5129.640625 0)"/>
    <use xlink:href="#DejaVuSans-4f" transform="translate(5190.828125 0)"/>
    <use xlink:href="#DejaVuSans-52" transform="translate(5218.609375 0)"/>
    <use xlink:href="#DejaVuSans-56" transform="translate(5279.796875 0)"/>
    <use xlink:href="#DejaVuSans-56" transform="translate(5331.890625 0)"/>
    <use xlink:href="#DejaVuSans-58" transform="translate(5383.984375 0)"/>
    <use xlink:href="#DejaVuSans-56" transform="translate(5447.359375 0)"/>
    <use xlink:href="#DejaVuSans-3" transform="translate(5499.453125 0)"/>
    <use xlink:href="#DejaVuSans-2f" transform="translate(5531.234375 0)"/>
    <use xlink:href="#DejaVuSans-44" transform="translate(5586.953125 0)"/>
    <use xlink:href="#DejaVuSans-45" transform="translate(5648.234375 0)"/>
    <use xlink:href="#DejaVuSans-11" transform="translate(5711.71875 0)"/>
   </g>
  </g>
 </g>
 <defs>
  <clipPath id="p4fbefccacf">
   <rect x="36.781875" y="25.44" width="667.399333" height="263.3"/>
  </clipPath>
 </defs>
</svg>
